  <svg width="261" height="43" viewBox="0 0 261 43" fill="none" xmlns="http://www.w3.org/2000/svg">
  <g>
  <path fill-rule="evenodd" clip-rule="evenodd" d="M0 14.4735C0 9.4073 0 6.8742 0.985948 4.93917C1.85321 3.23707 3.23707 1.85321 4.93917 0.985948C6.8742 0 9.4073 0 14.4735 0H28.9761C34.0423 0 36.5754 0 38.5104 0.985948C40.2125 1.85321 41.5964 3.23707 42.4637 4.93917C43.4496 6.8742 43.4496 9.4073 43.4496 14.4735V28.5265C43.4496 33.5927 43.4496 36.1258 42.4637 38.0608C41.5964 39.7629 40.2125 41.1468 38.5104 42.0141C36.5754 43 34.0423 43 28.9761 43H14.4735C9.4073 43 6.8742 43 4.93917 42.0141C3.23707 41.1468 1.85321 39.7629 0.985948 38.0608C0 36.1258 0 33.5927 0 28.5265V14.4735ZM20.7874 25.8005L9.46347 19.9022L10.8126 15.9321L24.5716 23.0988V28.5022L10.8126 35.6689L9.46347 31.6988L20.7874 25.8005ZM107.532 7.30688H104.703C104.35 6.08529 103.379 5.35361 101.945 5.35361C99.9328 5.35361 98.5634 6.88696 98.5634 9.59737C98.5634 12.3205 99.8814 13.8666 101.971 13.8666C103.822 13.8666 104.935 12.8422 104.973 11.2262H102.144V9.15199H107.654V10.7935C107.654 14.2229 105.282 16.3034 101.958 16.3034C98.2484 16.3034 95.7411 13.7457 95.7411 9.62282C95.7411 5.39815 98.422 2.91679 101.9 2.91679C104.877 2.91679 107.172 4.73009 107.532 7.30688ZM59.0772 3.09494H61.8609V16.1252H59.0772V3.09494ZM64.8754 16.1252V3.09494H68.3085L71.9344 11.8497H72.0887L75.7147 3.09494H79.1477V16.1252H76.4476V7.64409H76.3383L72.9309 16.0616H71.0922L67.6849 7.61228H67.5756V16.1252H64.8754ZM84.594 16.1252L85.5712 13.154H90.3222L91.2994 16.1252H94.2825L89.7436 3.09494H86.1562L81.6109 16.1252H84.594ZM86.2784 11.0035L87.8985 6.07257H88.0013L89.6214 11.0035H86.2784ZM110.469 16.1252H119.367V13.8538H113.253V10.7426H118.885V8.47121H113.253V5.36633H119.341V3.09494H110.469V16.1252ZM132.818 16.1252H127.193V3.09494H132.465C135.37 3.09494 136.836 4.48195 136.836 6.43523C136.836 7.96858 135.827 8.92931 134.458 9.2347V9.36196C135.955 9.43194 137.351 10.5963 137.351 12.5241C137.351 14.5983 135.775 16.1252 132.818 16.1252ZM129.977 10.4118V13.8729H132.246C133.802 13.8729 134.477 13.2303 134.477 12.2505C134.477 11.1753 133.647 10.4118 132.31 10.4118H129.977ZM129.977 5.3218V8.54756H132.04C133.178 8.54756 134.027 7.92404 134.027 6.89332C134.027 5.95168 133.326 5.3218 132.092 5.3218H129.977ZM139.115 3.09494L143.917 11.5188V16.1252H146.682V11.5188L151.484 3.09494H148.366L145.364 8.70662H145.235L142.233 3.09494H139.115ZM70.6365 32.3902H67.8077C67.4541 31.1686 66.4834 30.4369 65.0497 30.4369C63.0374 30.4369 61.6681 31.9703 61.6681 34.6807C61.6681 37.4038 62.986 38.9499 65.0754 38.9499C66.927 38.9499 68.0392 37.9256 68.0777 36.3095H65.249V34.2353H70.7586V35.8768C70.7586 39.3062 68.3863 41.3867 65.0626 41.3867C61.353 41.3867 58.8457 38.829 58.8457 34.7062C58.8457 30.4815 61.5266 28.0001 65.0047 28.0001C67.9813 28.0001 70.2765 29.8134 70.6365 32.3902ZM73.5738 41.2086H82.4715V38.9372H76.3576V35.8259H81.9893V33.5545H76.3576V30.4497H82.4458V28.1783H73.5738V41.2086ZM93.6251 28.1783H96.396V41.2086H93.9915L88.2633 33.0074H88.1669V41.2086H85.3831V28.1783H87.8261L93.5094 36.3731H93.6251V28.1783ZM99.4201 41.2086H108.318V38.9372H102.204V35.8259H107.836V33.5545H102.204V30.4497H108.292V28.1783H99.4201V41.2086ZM114.013 41.2086H111.229V28.1783H116.424C119.414 28.1783 121.143 29.8452 121.143 32.4348C121.143 34.2162 120.314 35.5078 118.816 36.1441L121.612 41.2086H118.539L116.045 36.5894H114.013V41.2086ZM114.013 30.4306V34.3753H115.903C117.498 34.3753 118.276 33.7263 118.276 32.4348C118.276 31.1368 117.498 30.4306 115.89 30.4306H114.013ZM126.104 41.2086L127.081 38.2373H131.832L132.809 41.2086H135.792L131.253 28.1783H127.666L123.121 41.2086H126.104ZM127.788 36.0868L129.408 31.1559H129.511L131.131 36.0868H127.788ZM140.004 30.4497H135.973V28.1783H146.787V30.4497H142.756V41.2086H140.004V30.4497ZM149.292 41.2086H158.189V38.9372H152.075V35.8259H157.707V33.5545H152.075V30.4497H158.164V28.1783H149.292V41.2086ZM172.21 34.6807C172.21 38.7527 169.78 41.2086 165.768 41.2086H161.101V28.1783H165.807C169.78 28.1783 172.21 30.6215 172.21 34.6807ZM163.885 30.5387V38.8481H165.653C168.128 38.8481 169.433 37.5883 169.433 34.6807C169.433 31.7858 168.128 30.5387 165.659 30.5387H163.885ZM181.911 41.2086H184.695V36.9839H187.035C190.063 36.9839 191.824 35.1961 191.824 32.5938C191.824 30.0043 190.095 28.1783 187.105 28.1783H181.911V41.2086ZM184.695 34.7761V30.4306H186.572C188.179 30.4306 188.957 31.2959 188.957 32.5938C188.957 33.8854 188.179 34.7761 186.585 34.7761H184.695ZM197.14 41.2086H194.357V28.1783H197.14V33.5545H202.791V28.1783H205.569V41.2086H202.791V35.8259H197.14V41.2086ZM220.687 34.6934C220.687 30.4306 218.013 28.0001 214.522 28.0001C211.012 28.0001 208.357 30.4306 208.357 34.6934C208.357 38.9372 211.012 41.3867 214.522 41.3867C218.013 41.3867 220.687 38.9563 220.687 34.6934ZM217.865 34.6934C217.865 37.4547 216.541 38.9499 214.522 38.9499C212.497 38.9499 211.179 37.4547 211.179 34.6934C211.179 31.9321 212.497 30.4369 214.522 30.4369C216.541 30.4369 217.865 31.9321 217.865 34.6934ZM226.42 30.4497H222.389V28.1783H233.202V30.4497H229.171V41.2086H226.42V30.4497ZM247.223 34.6934C247.223 30.4306 244.549 28.0001 241.058 28.0001C237.548 28.0001 234.892 30.4306 234.892 34.6934C234.892 38.9372 237.548 41.3867 241.058 41.3867C244.549 41.3867 247.223 38.9563 247.223 34.6934ZM244.401 34.6934C244.401 37.4547 243.076 38.9499 241.058 38.9499C239.033 38.9499 237.715 37.4547 237.715 34.6934C237.715 31.9321 239.033 30.4369 241.058 30.4369C243.076 30.4369 244.401 31.9321 244.401 34.6934ZM259.82 31.9258H257.152C257.049 30.9014 256.233 30.3033 254.902 30.3033C253.539 30.3033 252.787 30.9205 252.787 31.7603C252.767 32.6956 253.725 33.1155 254.87 33.3764L256.053 33.6563C258.341 34.1653 259.994 35.3169 260 37.4865C259.994 39.8725 258.103 41.3931 254.889 41.3931C251.694 41.3931 249.656 39.9361 249.585 37.1175H252.279C252.369 38.4218 253.41 39.0835 254.857 39.0835C256.271 39.0835 257.184 38.4346 257.191 37.4802C257.184 36.6022 256.387 36.195 254.953 35.8514L253.52 35.4951C251.295 34.967 249.926 33.8663 249.932 31.9448C249.919 29.578 252.035 28.0001 254.921 28.0001C257.853 28.0001 259.781 29.6035 259.82 31.9258Z" fill="white"/>
  <path d="M176.705 41.1849C177.614 41.1849 178.402 40.425 178.409 39.4804C178.402 38.55 177.614 37.79 176.705 37.79C175.767 37.79 174.993 38.55 175 39.4804C174.993 40.425 175.767 41.1849 176.705 41.1849Z" fill="white"/>
  </g>
  </svg>