<svg fill="none" height="213" width="213" xmlns="http://www.w3.org/2000/svg"><path d="m13.041 212.378-12.341-12.342 4.4-4.399c.96-.96 1.93-1.581 2.91-1.862.98-.282 1.93-.276 2.85.018.917.289 1.753.811 2.508 1.567.76.759 1.284 1.601 1.573 2.525.29.916.293 1.868.012 2.856-.281.981-.9 1.949-1.856 2.905l-3.026 3.025-1.578-1.579 2.856-2.856c.607-.607.994-1.203 1.163-1.79a2.78 2.78 0 0 0 -.036-1.699c-.189-.543-.516-1.047-.982-1.513s-.969-.792-1.507-.976c-.538-.185-1.1-.189-1.687-.012-.583.172-1.184.568-1.802 1.187l-2.339 2.338 10.746 10.745-1.863 1.862zm6.699-17.69 5.496 5.496-1.802 1.802-12.342-12.342 1.777-1.778 4.593 4.592.114-.114a3.764 3.764 0 0 1 -.193-2.182c.153-.739.589-1.468 1.308-2.187.635-.635 1.32-1.059 2.055-1.272.74-.217 1.499-.197 2.278.06.78.249 1.555.76 2.326 1.531l5.888 5.888-1.802 1.802-5.67-5.671c-.68-.679-1.38-1.031-2.104-1.055-.727-.028-1.402.269-2.025.892a3.379 3.379 0 0 0 -.874 1.416 2.765 2.765 0 0 0 .006 1.585c.157.535.48 1.047.97 1.537zm17.67-6.305c-.867.868-1.823 1.426-2.868 1.675-1.045.25-2.103.195-3.176-.162-1.073-.358-2.087-1.015-3.043-1.971-.96-.96-1.622-1.979-1.983-3.055-.362-1.077-.418-2.138-.169-3.182.25-1.045.808-2.001 1.675-2.869.868-.868 1.825-1.426 2.87-1.675 1.044-.249 2.104-.193 3.181.168 1.077.362 2.095 1.023 3.056 1.983.956.956 1.613 1.971 1.97 3.044.358 1.072.412 2.131.163 3.175-.25 1.045-.808 2.001-1.675 2.869zm-1.506-1.519c.562-.562.88-1.177.952-1.844s-.05-1.336-.368-2.006c-.313-.675-.767-1.31-1.362-1.905a6.674 6.674 0 0 0 -1.898-1.356c-.675-.321-1.348-.448-2.019-.379-.67.068-1.287.383-1.85.946-.566.566-.886 1.187-.958 1.862-.068.671.056 1.346.373 2.025a6.8 6.8 0 0 0 1.363 1.892c.594.595 1.227 1.051 1.898 1.368.675.313 1.346.434 2.013.362.67-.077 1.29-.398 1.856-.965zm2.392-18.253 1.446 1.446-5.056 5.056-1.446-1.446zm-5.918 1.482 1.802-1.802 8.757 8.757c.349.349.664.56.946.632.277.069.53.053.759-.048a2.28 2.28 0 0 0 .639-.458c.144-.144.26-.281.35-.41.088-.128.156-.229.204-.301l1.814 1.163a4.26 4.26 0 0 1 -.325.567 4.979 4.979 0 0 1 -.651.795 4.49 4.49 0 0 1 -1.58 1.073 3.22 3.22 0 0 1 -1.813.175c-.623-.117-1.213-.454-1.772-1.013zm20.836 2.486c-.867.868-1.824 1.427-2.868 1.676-1.045.249-2.103.194-3.176-.163-1.073-.358-2.087-1.015-3.044-1.971-.96-.96-1.62-1.978-1.982-3.055s-.418-2.138-.17-3.182c.25-1.045.809-2.001 1.676-2.869.868-.868 1.824-1.426 2.869-1.675 1.044-.249 2.105-.193 3.182.169 1.077.361 2.095 1.022 3.055 1.982.956.957 1.613 1.971 1.971 3.044.358 1.072.412 2.131.163 3.176-.25 1.044-.808 2-1.676 2.868zm-1.506-1.518c.562-.563.88-1.178.952-1.845.072-.666-.05-1.335-.368-2.006-.313-.675-.767-1.31-1.362-1.905a6.675 6.675 0 0 0 -1.898-1.356c-.675-.321-1.348-.448-2.019-.379-.67.068-1.288.383-1.85.946-.566.566-.886 1.187-.958 1.862-.069.671.056 1.346.373 2.025a6.778 6.778 0 0 0 1.362 1.892c.595.595 1.228 1.051 1.899 1.368.675.314 1.346.434 2.013.362.67-.077 1.29-.398 1.856-.964zm6.65-22.512 1.446 1.447-5.231 5.231-1.447-1.447 5.231-5.231zm5.46 13.054-10.33-10.33c-.579-.578-.932-1.185-1.06-1.82a3.292 3.292 0 0 1 .144-1.868 4.536 4.536 0 0 1 1.073-1.651 5.82 5.82 0 0 1 1.018-.838 5.97 5.97 0 0 1 .73-.416l1.036 1.881c-.109.06-.245.14-.41.241a2.63 2.63 0 0 0 -.536.427c-.438.438-.643.86-.615 1.266.032.402.253.808.663 1.217l10.088 10.089-1.802 1.802zm5.337-5.338-9.257-9.257 1.742-1.741 1.47 1.47.097-.096a3.165 3.165 0 0 1 -.283-2.067 3.61 3.61 0 0 1 1.024-1.893 10.825 10.825 0 0 1 .808-.723l1.723 1.724a4.453 4.453 0 0 0 -.452.319 5.319 5.319 0 0 0 -.596.512c-.426.426-.715.896-.868 1.411a2.846 2.846 0 0 0 .741 2.886l5.653 5.653zm9.95-9.576c-.868.868-1.825 1.426-2.87 1.676-1.044.249-2.103.194-3.175-.163-1.073-.358-2.087-1.015-3.044-1.971-.96-.96-1.62-1.978-1.982-3.055s-.418-2.138-.169-3.182c.25-1.045.808-2.001 1.675-2.869.868-.868 1.824-1.426 2.869-1.675 1.044-.249 2.105-.193 3.182.169 1.077.361 2.095 1.022 3.055 1.982.957.956 1.613 1.971 1.971 3.044.358 1.072.412 2.131.163 3.176-.25 1.044-.808 2-1.676 2.868zm-1.507-1.518c.562-.563.88-1.178.952-1.845.072-.666-.05-1.335-.368-2.006-.313-.675-.767-1.31-1.362-1.905a6.675 6.675 0 0 0 -1.898-1.356c-.675-.321-1.348-.448-2.019-.379-.67.068-1.288.383-1.85.946-.566.566-.886 1.187-.958 1.862-.069.671.056 1.346.373 2.025a6.778 6.778 0 0 0 1.362 1.892c.595.595 1.228 1.051 1.899 1.368.675.314 1.346.434 2.013.362.67-.077 1.29-.398 1.856-.964zm7.328-4.677-9.257-9.256 1.73-1.73 1.506 1.507.115-.115a3.38 3.38 0 0 1 -.247-2.139c.148-.727.528-1.396 1.139-2.007.618-.619 1.281-.992 1.988-1.121.712-.133 1.42-.046 2.128.259l.096-.096a3.684 3.684 0 0 1 -.126-2.236c.184-.78.61-1.503 1.277-2.17.84-.839 1.788-1.261 2.845-1.265 1.06-.008 2.121.518 3.182 1.579l6.207 6.207-1.802 1.802-6.038-6.039c-.627-.626-1.252-.91-1.875-.849-.623.06-1.17.327-1.645.801-.587.587-.862 1.224-.826 1.911.033.683.33 1.305.892 1.868l5.9 5.9-1.796 1.796-6.153-6.153c-.502-.503-1.062-.75-1.681-.742s-1.18.263-1.681.766a2.473 2.473 0 0 0 -.675 1.217c-.109.462-.093.94.048 1.434.144.49.426.944.843 1.362l5.708 5.707zm8.517-33.202 12.343 12.342-1.862 1.862-12.343-12.342zm18.678 6.381c-.896.896-1.87 1.464-2.923 1.705-1.053.233-2.111.163-3.176-.211-1.065-.373-2.061-1.024-2.989-1.952-.94-.94-1.593-1.947-1.959-3.019-.369-1.077-.436-2.14-.199-3.188.237-1.049.792-2.009 1.664-2.881.703-.703 1.46-1.199 2.272-1.489a4.776 4.776 0 0 1 2.416-.247c.808.125 1.555.466 2.242 1.025l-1.754 1.753a2.975 2.975 0 0 0 -1.783-.458c-.655.029-1.27.33-1.845.904-.502.503-.809 1.075-.922 1.718-.112.635-.03 1.3.247 1.995.274.691.74 1.366 1.399 2.025.675.675 1.36 1.155 2.055 1.44s1.364.376 2.006.271c.647-.108 1.226-.418 1.736-.928.342-.341.589-.713.741-1.115.153-.41.205-.827.157-1.253a2.919 2.919 0 0 0 -.452-1.26l1.754-1.754a4.819 4.819 0 0 1 1.018 2.188 4.746 4.746 0 0 1 -.199 2.417c-.273.811-.775 1.583-1.506 2.314zm9.31-9.311c-.867.868-1.824 1.427-2.868 1.676-1.045.249-2.104.194-3.176-.163-1.073-.358-2.087-1.015-3.044-1.971-.96-.96-1.621-1.978-1.982-3.055-.362-1.077-.418-2.138-.169-3.182.249-1.045.808-2.001 1.675-2.869.868-.868 1.824-1.426 2.869-1.675 1.045-.25 2.105-.193 3.182.169 1.077.361 2.095 1.022 3.055 1.982.957.957 1.613 1.971 1.971 3.044.358 1.072.412 2.131.163 3.176-.249 1.044-.808 2-1.676 2.868zm-1.506-1.518c.562-.563.88-1.178.952-1.845.072-.666-.05-1.335-.368-2.006-.313-.675-.767-1.31-1.362-1.905a6.642 6.642 0 0 0 -1.898-1.356c-.675-.321-1.348-.448-2.019-.38-.671.069-1.288.384-1.85.947-.567.566-.886 1.187-.958 1.862-.069.67.056 1.346.373 2.025a6.802 6.802 0 0 0 1.362 1.892c.595.595 1.228 1.051 1.899 1.368.675.314 1.346.434 2.013.362.671-.077 1.289-.398 1.856-.964zm3.633-11.975 5.497 5.496-1.802 1.802-9.257-9.256 1.73-1.73 1.506 1.507.115-.115a3.733 3.733 0 0 1 -.181-2.181c.161-.756.588-1.48 1.284-2.176.63-.63 1.315-1.05 2.055-1.26.735-.212 1.492-.19 2.272.067.779.257 1.55.767 2.314 1.53l5.888 5.888-1.802 1.802-5.671-5.67c-.671-.672-1.37-1.021-2.097-1.05-.732-.031-1.403.258-2.013.869-.418.417-.699.88-.844 1.386a2.752 2.752 0 0 0 .03 1.56c.161.53.486 1.041.976 1.531zm13.459-16.46-1.344 1.923a2.738 2.738 0 0 0 -.922-.271 2.278 2.278 0 0 0 -1.055.127c-.369.128-.741.38-1.115.753-.51.51-.821 1.05-.934 1.621-.116.567.004 1.029.362 1.386a1.3 1.3 0 0 0 1.091.404c.417-.04.942-.255 1.572-.645l1.808-1.133c1.049-.655 1.987-.986 2.815-.994.827-.008 1.569.315 2.223.97.555.554.888 1.21 1.001 1.965.112.747.006 1.528-.32 2.344-.321.811-.855 1.59-1.603 2.338-1.036 1.037-2.103 1.661-3.2 1.874-1.1.21-2.135-.022-3.103-.693l1.476-2.007c.563.346 1.129.467 1.7.362.566-.108 1.121-.434 1.663-.976.591-.59.94-1.185 1.049-1.784.104-.603-.022-1.083-.38-1.44a1.338 1.338 0 0 0 -1.055-.404c-.409.016-.886.195-1.428.536l-1.91 1.224c-1.061.666-2.013.992-2.857.976-.84-.02-1.589-.36-2.248-1.019-.546-.546-.872-1.177-.976-1.892-.105-.715-.002-1.456.307-2.224.306-.771.806-1.504 1.501-2.2 1-1 2.005-1.57 3.013-1.71 1.005-.145 1.961.051 2.869.59zm13.155 1.176c-.864.864-1.776 1.479-2.736 1.844-.956.362-1.882.468-2.778.32-.896-.149-1.675-.559-2.338-1.23a4.438 4.438 0 0 1 -1.326-3.76c.08-.675.313-1.286.699-1.832l-.072-.073a3.524 3.524 0 0 1 -2.465.489c-.88-.141-1.649-.545-2.308-1.212-.635-.627-1.031-1.356-1.188-2.187-.156-.84-.08-1.7.229-2.58.31-.88.844-1.7 1.604-2.459.751-.75 1.566-1.277 2.446-1.578.88-.31 1.74-.386 2.58-.23.835.153 1.568.54 2.199 1.164.659.667 1.057 1.442 1.193 2.326.137.884-.02 1.7-.47 2.447l.073.072a3.814 3.814 0 0 1 1.814-.681 4.52 4.52 0 0 1 1.994.21 4.466 4.466 0 0 1 1.784 1.098 4.272 4.272 0 0 1 1.218 2.35c.148.896.04 1.824-.326 2.784-.361.956-.97 1.862-1.826 2.718zm-1.524-1.524c.51-.51.867-1.037 1.072-1.58.201-.546.251-1.074.151-1.584-.105-.515-.362-.98-.771-1.398a2.877 2.877 0 0 0 -1.477-.802 3.186 3.186 0 0 0 -1.663.108c-.563.185-1.085.519-1.567 1-.486.487-.824 1.013-1.013 1.58a3.177 3.177 0 0 0 -.114 1.67c.112.545.386 1.032.819 1.457.41.418.87.681 1.381.79.51.1 1.04.048 1.591-.157.546-.209 1.076-.57 1.591-1.084zm-5.744-5.744c.41-.41.691-.855.844-1.338.153-.482.173-.96.06-1.434-.108-.478-.357-.916-.747-1.314-.39-.381-.82-.626-1.29-.735a2.49 2.49 0 0 0 -1.41.072c-.478.157-.926.444-1.344.862-.426.426-.719.88-.88 1.362a2.5 2.5 0 0 0 -.072 1.41c.113.466.364.89.753 1.272.39.398.822.653 1.296.765.474.113.952.093 1.434-.06.486-.157.938-.444 1.356-.862zm5.333-15.819 2.26-2.26 13.523 5.665.145-.144-5.665-13.524 2.26-2.26 12.342 12.343-1.771 1.771-8.932-8.93-.114.114 5.273 12.553-1.47 1.47-12.56-5.279-.114.115 8.937 8.937-1.772 1.772zm31.196-6.137c-.868.867-1.824 1.426-2.869 1.675-1.044.25-2.103.195-3.176-.163-1.072-.357-2.087-1.014-3.043-1.97-.96-.96-1.621-1.979-1.983-3.056-.361-1.077-.418-2.137-.169-3.182.25-1.044.808-2 1.676-2.868s1.824-1.427 2.868-1.676c1.045-.249 2.106-.193 3.182.17 1.077.36 2.096 1.022 3.056 1.982.956.956 1.613 1.97 1.971 3.043.357 1.073.411 2.131.162 3.176s-.807 2-1.675 2.869zm-1.507-1.519c.563-.562.88-1.177.952-1.844.073-.667-.05-1.336-.367-2.007-.314-.675-.768-1.31-1.362-1.904a6.661 6.661 0 0 0 -1.899-1.356c-.674-.322-1.347-.448-2.018-.38s-1.288.384-1.85.946c-.567.567-.886 1.188-.959 1.863-.068.67.057 1.345.374 2.024a6.78 6.78 0 0 0 1.362 1.893c.595.594 1.227 1.05 1.898 1.368.675.313 1.346.434 2.013.361.671-.076 1.29-.398 1.856-.964zm11.414-8.389c-.868.868-1.824 1.427-2.868 1.676-1.045.249-2.104.195-3.176-.163-1.073-.357-2.088-1.014-3.044-1.97-.96-.96-1.621-1.98-1.983-3.056-.361-1.077-.417-2.137-.168-3.182.249-1.044.807-2 1.675-2.868s1.824-1.427 2.869-1.676c1.044-.249 2.105-.193 3.182.169 1.076.361 2.095 1.022 3.055 1.983.956.956 1.613 1.97 1.971 3.043.357 1.073.412 2.131.162 3.176-.249 1.044-.807 2-1.675 2.868zm-1.507-1.518c.563-.563.88-1.177.953-1.844.072-.667-.051-1.336-.368-2.007-.313-.675-.767-1.31-1.362-1.904-.591-.591-1.223-1.043-1.898-1.356-.675-.322-1.348-.448-2.019-.38s-1.288.384-1.85.946c-.567.566-.886 1.187-.958 1.862-.069.671.056 1.346.373 2.025a6.812 6.812 0 0 0 1.362 1.892c.595.595 1.228 1.051 1.898 1.369.675.313 1.346.433 2.013.361.671-.076 1.29-.398 1.856-.964zm7.268-18.61-1.344 1.923a2.732 2.732 0 0 0 -.922-.271 2.274 2.274 0 0 0 -1.054.126c-.37.129-.742.38-1.115.753-.511.51-.822 1.051-.934 1.622-.117.566.004 1.028.361 1.386.309.309.673.444 1.091.403.418-.04.942-.255 1.573-.644l1.808-1.133c1.048-.655 1.986-.987 2.814-.995s1.569.316 2.224.97c.554.555.888 1.21 1 1.965.113.747.006 1.529-.319 2.345-.322.811-.856 1.59-1.603 2.338-1.037 1.036-2.103 1.661-3.2 1.874-1.101.209-2.136-.022-3.104-.693l1.477-2.007c.562.346 1.129.466 1.699.362.567-.109 1.121-.434 1.663-.977.591-.59.941-1.185 1.049-1.783.104-.603-.022-1.083-.38-1.44a1.335 1.335 0 0 0 -1.054-.405c-.41.017-.886.195-1.429.537l-1.91 1.223c-1.061.667-2.013.993-2.857.977-.839-.02-1.588-.36-2.247-1.019-.547-.546-.872-1.177-.977-1.892-.104-.715-.002-1.457.308-2.224.305-.771.805-1.505 1.5-2.2 1.001-1 2.005-1.57 3.014-1.711 1.004-.145 1.96.052 2.868.59zm13.017 1.35c-.912.913-1.892 1.503-2.941 1.772-1.049.262-2.107.215-3.176-.138-1.069-.362-2.083-1.023-3.043-1.983-.948-.948-1.607-1.96-1.977-3.037-.366-1.081-.432-2.144-.199-3.188.237-1.049.786-2.003 1.645-2.863a6.425 6.425 0 0 1 1.778-1.26 5.203 5.203 0 0 1 2.134-.506c.759-.02 1.546.153 2.362.519.812.361 1.637.962 2.477 1.802l.639.638-7.359 7.359-1.35-1.35 5.593-5.593c-.474-.474-.99-.797-1.549-.97a3.092 3.092 0 0 0 -1.687-.06c-.559.132-1.071.432-1.537.898-.506.506-.824 1.072-.952 1.7a3.54 3.54 0 0 0 .096 1.831 3.94 3.94 0 0 0 .983 1.585l1.054 1.055c.619.618 1.254 1.036 1.905 1.253a3.326 3.326 0 0 0 1.916.073c.619-.17 1.191-.517 1.718-1.043a4.07 4.07 0 0 0 .789-1.079c.181-.381.275-.773.283-1.175a2.737 2.737 0 0 0 -.259-1.2l2.013-1.397c.366.638.56 1.324.585 2.055.024.723-.125 1.454-.446 2.193-.322.731-.82 1.435-1.495 2.11z" fill="#000" fill-opacity=".08"/><path d="m13.041 212.378-.707.708.707.707.708-.707zm-12.341-12.342-.707-.707-.707.707.707.707zm10.16-6.243-.303.953h.003zm4.08 4.092-.954.298.001.003.954-.301zm.013 2.856.961.276v-.002zm-4.882 5.93-.707.707.707.708.708-.708zm-1.578-1.579-.708-.707-.707.707.707.708zm4.02-4.646.96.276.002-.007-.963-.269zm-4.213-4.2.284.958.004-.001zm-4.14 3.525-.708-.707-.707.707.707.707.707-.707zm10.745 10.745.707.707.707-.707-.707-.707zm-1.155 1.155-12.344-12.342-1.414 1.414 12.342 12.343 1.415-1.415zm-12.344-10.928 4.4-4.399-1.414-1.414-4.4 4.399zm4.4-4.399c.878-.879 1.707-1.387 2.48-1.608l-.552-1.923c-1.189.341-2.3 1.075-3.342 2.117zm2.48-1.608c.8-.23 1.55-.22 2.27.01l.608-1.906c-1.12-.357-2.271-.359-3.43-.027l.551 1.923zm2.273.01c.746.236 1.446.666 2.1 1.321l1.415-1.414c-.856-.856-1.827-1.471-2.913-1.814zm2.1 1.321c.659.658 1.09 1.363 1.326 2.116l1.91-.597c-.343-1.094-.96-2.073-1.82-2.933l-1.415 1.414zm1.327 2.119c.226.716.236 1.468.004 2.282l1.924.547c.33-1.163.332-2.315-.02-3.431zm.005 2.28c-.222.772-.728 1.599-1.602 2.473l1.414 1.414c1.038-1.038 1.77-2.148 2.11-3.336zm-1.602 2.473-3.026 3.025 1.415 1.414 3.025-3.025zm-1.611 3.025-1.58-1.579-1.414 1.415 1.58 1.578zm-1.58-.164 2.857-2.857-1.414-1.414-2.857 2.856 1.416 1.415zm2.857-2.857c.68-.681 1.187-1.419 1.417-2.221l-1.922-.552c-.107.371-.376.826-.909 1.359zm1.42-2.228a3.782 3.782 0 0 0 -.056-2.297l-1.888.657c.117.337.13.694.017 1.102l1.926.538zm-.056-2.297c-.245-.705-.662-1.334-1.22-1.891l-1.413 1.414c.375.375.612.754.745 1.134zm-1.22-1.891c-.556-.557-1.185-.974-1.888-1.215l-.65 1.891c.374.129.75.363 1.125.738l1.414-1.414zm-1.888-1.215c-.752-.258-1.53-.256-2.3-.024l.576 1.915c.402-.121.75-.111 1.074 0zm-2.297-.025c-.797.236-1.536.751-2.224 1.439l1.414 1.414c.55-.55 1.011-.827 1.379-.936zm-2.224 1.439-2.339 2.338 1.415 1.414 2.338-2.338zm-2.339 3.752 10.746 10.745 1.414-1.414-10.745-10.745zm10.746 9.331-1.863 1.862 1.415 1.415 1.862-1.863zm11.039-9.625.707.707.707-.707-.707-.707zm-1.802 1.802-.707.707.707.707.707-.707zm-12.342-12.342-.708-.707-.707.707.707.707zm1.777-1.778.708-.707-.707-.707-.708.707zm4.593 4.592-.707.707.707.707.707-.707zm.114-.114.707.707.464-.464-.24-.609-.93.366zm-.193-2.182-.979-.202.98.202zm3.363-3.459.278.96.004-.001zm2.278.06-.313.95.009.003zm8.214 7.419.707.707.707-.707-.707-.707zm-1.802 1.802-.707.707.707.707.707-.707zm-7.774-6.726-.039.999.006.001zm-2.899 2.308-.957-.289-.001.005zm.006 1.585-.96.278v.004zm.264 2.244 5.496 5.496 1.414-1.414-5.496-5.496-1.415 1.414zm5.496 4.082-1.802 1.802 1.414 1.414 1.802-1.802zm-.388 1.802-12.342-12.342-1.415 1.414 12.343 12.342zm-12.342-10.928 1.778-1.778-1.415-1.414-1.778 1.778zm.363-1.778 4.592 4.592 1.415-1.414-4.592-4.592zm6.007 4.592.114-.114-1.414-1.414-.114.114zm.338-1.187a2.765 2.765 0 0 1 -.144-1.614l-1.959-.404a4.763 4.763 0 0 0 .241 2.75zm-.144-1.614c.101-.492.407-1.055 1.035-1.682l-1.414-1.415c-.81.811-1.376 1.706-1.58 2.693zm1.035-1.682c.536-.537 1.08-.86 1.626-1.019l-.556-1.921c-.923.268-1.75.792-2.484 1.525zm1.63-1.02c.531-.156 1.083-.147 1.683.051l.626-1.899c-.959-.317-1.926-.349-2.872-.071zm1.692.054c.585.187 1.229.59 1.923 1.285l1.414-1.414c-.848-.848-1.755-1.465-2.729-1.776zm1.923 1.285 5.888 5.888 1.414-1.414-5.888-5.888zm5.888 4.474-1.802 1.802 1.414 1.414 1.802-1.802zm-.388 1.802-5.67-5.671-1.415 1.414 5.671 5.671zm-5.67-5.671c-.799-.799-1.727-1.312-2.778-1.347l-.066 1.999c.396.013.87.202 1.43.762l1.413-1.414zm-2.772-1.347c-1.063-.041-1.996.409-2.77 1.184l1.413 1.414c.47-.47.888-.615 1.28-.6zm-2.77 1.184a4.374 4.374 0 0 0 -1.125 1.834l1.915.579c.103-.344.3-.676.623-.999l-1.414-1.414zm-1.126 1.839a3.764 3.764 0 0 0 .004 2.147l1.921-.555a1.768 1.768 0 0 1 -.008-1.023zm.005 2.151c.214.73.643 1.382 1.223 1.962l1.414-1.414c-.4-.4-.619-.772-.718-1.111l-1.92.563zm13.556-3.537.316-.949zm-5.195-8.208.973.232zm4.544-4.544.232.972zm8.208 5.195-.949.316.95-.316zm.163 3.175.973.232zm-2.23-.494-.994-.107zm-.368-2.006-.907.421.003.006zm-3.26-3.261-.43.903.009.004zm-2.019-.379.102.994zm-2.808 2.808-.994-.107-.001.006zm.373 2.025-.905.423.002.004.904-.427zm3.26 3.26-.427.904.007.003zm2.014.362.108.994.005-.001zm2.655-.153c-.756.756-1.553 1.209-2.393 1.41l.464 1.945c1.249-.298 2.364-.961 3.344-1.941zm-2.393 1.41c-.854.203-1.722.163-2.628-.139l-.632 1.897c1.24.414 2.488.482 3.724.187zm-2.628-.139c-.9-.3-1.785-.861-2.652-1.729l-1.415 1.414c1.045 1.045 2.189 1.797 3.435 2.212zm-2.652-1.729c-.873-.872-1.439-1.762-1.742-2.667l-1.896.637c.42 1.249 1.175 2.396 2.223 3.444zm-1.742-2.667c-.306-.91-.347-1.78-.144-2.631l-1.946-.464c-.295 1.237-.224 2.488.194 3.732zm-.144-2.631c.2-.84.653-1.638 1.41-2.394l-1.415-1.414c-.98.979-1.643 2.095-1.94 3.344zm1.41-2.394c.756-.756 1.553-1.209 2.393-1.41l-.464-1.945c-1.249.298-2.364.961-3.344 1.941zm2.393-1.41c.852-.203 1.722-.161 2.632.144l.636-1.896c-1.243-.417-2.495-.488-3.732-.193zm2.632.144c.904.304 1.794.87 2.666 1.742l1.415-1.414c-1.049-1.048-2.195-1.804-3.445-2.224zm2.666 1.742c.868.868 1.43 1.753 1.73 2.653l1.897-.633c-.416-1.246-1.168-2.389-2.212-3.434zm1.73 2.653c.301.905.342 1.774.138 2.628l1.946.463c.294-1.235.226-2.484-.187-3.724l-1.898.633zm.138 2.628c-.2.84-.654 1.637-1.41 2.393l1.415 1.414c.98-.979 1.643-2.094 1.94-3.344zm-1.502 2.289c.693-.693 1.138-1.51 1.24-2.444l-1.99-.215c-.042.4-.232.812-.664 1.244zm1.24-2.444c.093-.869-.071-1.723-.459-2.542l-1.808.855c.248.523.328 1.007.278 1.472l1.988.215zm-.456-2.536c-.368-.794-.895-1.523-1.561-2.19l-1.415 1.414c.523.523.904 1.063 1.162 1.619zm-1.561-2.19a7.67 7.67 0 0 0 -2.185-1.556l-.842 1.814a5.66 5.66 0 0 1 1.612 1.156zm-2.176-1.552c-.822-.391-1.678-.56-2.55-.471l.203 1.989c.469-.047.96.037 1.487.288zm-2.55-.471c-.94.095-1.761.539-2.456 1.234l1.414 1.414c.43-.43.842-.618 1.245-.659zm-2.456 1.234c-.698.697-1.145 1.521-1.245 2.462l1.988.213c.044-.408.236-.826.671-1.261zm-1.246 2.468c-.088.87.078 1.725.463 2.549l1.811-.847c-.25-.534-.332-1.028-.284-1.5zm.465 2.553c.372.787.897 1.51 1.558 2.172l1.415-1.414a5.8 5.8 0 0 1 -1.166-1.613zm1.558 2.172c.666.665 1.39 1.192 2.178 1.565l.855-1.808c-.554-.262-1.094-.647-1.618-1.171zm2.185 1.568c.821.381 1.674.543 2.542.449l-.216-1.989c-.467.051-.956-.029-1.484-.274zm2.547.448c.935-.106 1.755-.555 2.45-1.25l-1.414-1.415c-.438.438-.856.632-1.262.678zm4.135-20.211.707-.708-.707-.707-.707.707zm1.446 1.446.708.707.707-.707-.707-.707zm-5.056 5.056-.707.707.707.707.707-.707zm-1.446-1.446-.707-.707-.707.707.707.707zm-.862-3.574-.707-.707-.707.707.707.707zm1.802-1.802.707-.707-.707-.707-.707.707zm9.703 9.389-.25.969.01.002zm.759-.048.402.916.013-.006.013-.006zm.988-.868.824.567zm.205-.301.54-.842-.827-.53-.545.817zm1.814 1.163.914.406.349-.784-.723-.464zm-.325.567-.837-.548-.005.008-.005.008zm-.651.795-.717-.697-.002.002zm-1.58 1.073.37.929zm-1.813.175-.184.983zm-5.691-10.918 1.446 1.446 1.415-1.414-1.447-1.447zm1.446.032-5.056 5.056 1.414 1.414 5.056-5.056zm-3.642 5.056-1.446-1.446-1.414 1.414 1.446 1.446zm-1.446-.032 5.056-5.056-1.414-1.415-5.056 5.057zm-.862-3.574 1.802-1.802-1.414-1.414-1.802 1.802zm.388-1.802 8.756 8.757 1.415-1.415-8.757-8.756zm8.756 8.757c.398.398.867.756 1.405.894l.498-1.937c-.026-.007-.187-.07-.488-.372zm1.414.896c.46.114.942.098 1.4-.103l-.803-1.832a.057.057 0 0 1 -.023.006c-.013 0-.043 0-.095-.013zm1.427-.115c.342-.162.648-.385.918-.655l-1.414-1.414a1.27 1.27 0 0 1 -.36.261zm.918-.655c.175-.175.335-.359.466-.55l-1.648-1.133a2.05 2.05 0 0 1 -.232.269zm.466-.55c.09-.13.161-.235.213-.313l-1.664-1.11c-.044.067-.11.163-.197.29zm-1.159-.026 1.814 1.163 1.08-1.684-1.814-1.163zm1.44-.085a3.453 3.453 0 0 1 -.248.425l1.673 1.096c.164-.25.306-.491.403-.709zm-.258.441a4.03 4.03 0 0 1 -.521.63l1.434 1.394c.314-.323.582-.644.78-.961l-1.694-1.063zm-.523.632a3.475 3.475 0 0 1 -1.23.838l.74 1.859a5.473 5.473 0 0 0 1.928-1.307zm-1.23.838c-.41.163-.822.204-1.26.122l-.368 1.966a4.217 4.217 0 0 0 2.367-.229l-.738-1.859zm-1.26.122c-.38-.072-.797-.286-1.249-.737l-1.414 1.414c.666.666 1.43 1.127 2.295 1.289zm-1.249-.737-9.13-9.13-1.414 1.414 9.13 9.13zm4.955-4.424.316-.949zm-5.195-8.208.973.232zm4.544-4.544.232.973zm8.208 5.195-.949.316zm.163 3.176.972.232zm-2.23-.495-.994-.107zm-.368-2.006-.907.421.003.006zm-3.26-3.261-.43.903.009.004.42-.907zm-2.019-.379.101.995-.1-.995zm-2.808 2.808-.995-.107v.006zm.373 2.025-.906.423.002.005zm3.26 3.26-.427.904.007.003zm2.014.362.107.994.006-.001-.114-.993zm2.655-.153c-.756.756-1.553 1.21-2.393 1.41l.464 1.945c1.249-.297 2.364-.961 3.343-1.941zm-2.393 1.41c-.854.203-1.722.163-2.628-.139l-.633 1.898c1.24.413 2.489.481 3.725.186zm-2.628-.139c-.9-.3-1.785-.861-2.652-1.729l-1.415 1.414c1.045 1.045 2.188 1.797 3.434 2.213zm-2.652-1.729c-.873-.872-1.439-1.762-1.742-2.667l-1.896.637c.42 1.249 1.175 2.396 2.223 3.444zm-1.742-2.667c-.306-.909-.347-1.779-.144-2.631l-1.946-.464c-.295 1.237-.224 2.489.194 3.732zm-.144-2.631c.2-.84.653-1.638 1.41-2.394l-1.415-1.414c-.98.98-1.643 2.095-1.94 3.344zm1.41-2.394c.756-.756 1.553-1.209 2.393-1.409l-.464-1.946c-1.25.298-2.364.962-3.344 1.941l1.414 1.414zm2.393-1.409c.852-.204 1.722-.162 2.632.144l.636-1.896c-1.243-.418-2.495-.489-3.732-.194zm2.632.144c.904.303 1.794.869 2.666 1.741l1.414-1.414c-1.048-1.048-2.195-1.804-3.444-2.223zm2.666 1.741c.868.868 1.43 1.754 1.73 2.653l1.897-.633c-.416-1.246-1.168-2.389-2.213-3.434zm1.73 2.653c.301.906.341 1.774.138 2.628l1.945.464c.295-1.236.227-2.485-.186-3.725l-1.898.633zm.138 2.628c-.2.84-.654 1.637-1.41 2.393l1.414 1.414c.98-.979 1.644-2.094 1.941-3.343zm-1.502 2.289c.692-.693 1.138-1.51 1.24-2.444l-1.99-.215c-.043.4-.232.812-.664 1.244zm1.24-2.444c.093-.869-.071-1.723-.459-2.542l-1.808.855c.248.523.328 1.007.278 1.472l1.988.215zm-.456-2.535c-.368-.795-.895-1.524-1.562-2.191l-1.414 1.414c.523.523.904 1.063 1.162 1.619zm-1.562-2.191a7.67 7.67 0 0 0 -2.184-1.556l-.842 1.814a5.682 5.682 0 0 1 1.612 1.156zm-2.175-1.552c-.822-.391-1.678-.56-2.55-.471l.202 1.99c.47-.048.96.036 1.488.287zm-2.55-.471c-.94.095-1.761.539-2.456 1.234l1.414 1.414c.43-.43.842-.618 1.244-.658zm-2.456 1.234c-.698.697-1.145 1.521-1.246 2.462l1.989.214c.044-.409.236-.827.671-1.262zm-1.246 2.468c-.089.87.077 1.725.462 2.549l1.812-.847c-.25-.534-.332-1.028-.284-1.5zm.464 2.554c.373.786.898 1.51 1.56 2.171l1.413-1.414a5.786 5.786 0 0 1 -1.165-1.613zm1.56 2.171c.664.665 1.39 1.193 2.177 1.565l.855-1.808c-.554-.262-1.094-.647-1.618-1.171l-1.415 1.414zm2.184 1.568c.821.382 1.674.543 2.541.449l-.215-1.988c-.467.05-.956-.029-1.484-.275zm2.547.448c.935-.106 1.754-.555 2.45-1.25l-1.415-1.415c-.438.438-.856.632-1.262.678l.226 1.987zm8.392-24.469.707-.707-.707-.707-.707.707zm1.447 1.447.707.707.707-.707-.707-.707zm-5.231 5.231-.707.707.707.707.707-.707zm-1.447-1.447-.707-.707-.707.707.707.707zm10.691 7.823-.707.707.707.707.707-.707zm-11.39-12.15.98-.198v-.005zm.145-1.868.935.353.003-.007zm2.091-2.489.527.85.007-.004.006-.004zm.73-.416.875-.482-.442-.803-.838.371.404.914zm1.036 1.881.485.874.872-.484-.481-.873zm-.41.241.496.868.013-.007.012-.008zm-1.151 1.693-.998.069.001.011zm10.751 11.306.707.707.707-.707-.707-.707zm-7.969-10.545 1.447 1.447 1.414-1.414-1.447-1.447zm1.447.033-5.231 5.231 1.414 1.414 5.23-5.231zm-3.817 5.231-1.447-1.447-1.414 1.414 1.447 1.447zm-1.447-.033 5.231-5.231-1.414-1.414-5.23 5.231zm10.691 6.409-10.329-10.33-1.414 1.414 10.33 10.33zm-10.329-10.33c-.476-.476-.707-.914-.788-1.311l-1.96.397c.177.872.653 1.647 1.334 2.328zm-.789-1.316a2.293 2.293 0 0 1 .102-1.312l-1.872-.706a4.29 4.29 0 0 0 -.188 2.424zm.104-1.319c.172-.466.447-.895.842-1.29l-1.414-1.414a5.532 5.532 0 0 0 -1.304 2.012zm.842-1.29c.325-.326.605-.55.838-.695l-1.054-1.7a6.791 6.791 0 0 0 -1.199.981zm.85-.703a5.13 5.13 0 0 1 .595-.343l-.809-1.829a6.826 6.826 0 0 0 -.865.488l1.08 1.684zm-.685-.775 1.036 1.88 1.752-.965-1.037-1.88-1.752.965zm1.426.523c-.125.07-.274.158-.445.262l1.042 1.707c.158-.096.282-.169.374-.22l-.97-1.749zm-.42.247a3.626 3.626 0 0 0 -.747.589l1.414 1.415c.147-.148.256-.228.325-.267zm-.747.589c-.536.536-.962 1.225-.906 2.042l1.996-.138c0-.003-.004-.037.034-.115.041-.084.126-.21.29-.374zm-.905 2.053c.058.724.447 1.339.953 1.844l1.414-1.414c-.314-.314-.367-.51-.373-.59zm.953 1.844 10.088 10.089 1.414-1.414-10.088-10.089zm10.088 8.675-1.802 1.802 1.414 1.414 1.802-1.802zm4.243-2.829-.707.707.707.707.707-.707zm-9.257-9.257-.707-.707-.707.707.707.707zm1.742-1.741.707-.707-.707-.708-.707.708zm1.47 1.47-.707.707.707.707.708-.707zm.097-.096.707.707.507-.507-.318-.643zm-.283-2.067.98.194.001-.002zm1.434-2.278.669.743v-.001l-.67-.742zm.398-.338.707-.707-.617-.617-.696.528zm1.723 1.724.492.87 1.146-.647-.93-.93zm-.452.319.593.806.008-.007.009-.006zm-1.464 1.923.957.288.001-.004zm-.042 1.524.972-.231v-.006zm6.436 7.015.707.707.707-.707-.707-.707zm-1.095 1.095-9.257-9.257-1.414 1.414 9.257 9.257zm-9.257-7.843 1.742-1.741-1.414-1.414-1.742 1.741zm.328-1.741 1.47 1.47 1.415-1.414-1.471-1.47zm2.885 1.47.096-.096-1.414-1.414-.097.096zm.285-1.246a2.165 2.165 0 0 1 -.198-1.43l-1.962-.388a4.164 4.164 0 0 0 .367 2.704zm-.198-1.432c.1-.515.341-.969.75-1.378l-1.414-1.414a4.609 4.609 0 0 0 -1.299 2.408zm.75-1.378c.097-.096.22-.212.372-.349l-1.338-1.487c-.17.153-.32.294-.448.422zm.373-.35c.157-.142.265-.232.333-.284l-1.21-1.592a7.56 7.56 0 0 0 -.463.391zm-.98-.373 1.724 1.724 1.414-1.414-1.723-1.724-1.414 1.414zm1.94.146a5.317 5.317 0 0 0 -.57.397l1.219 1.586a6.855 6.855 0 0 1 .309-.226l.025-.016-.984-1.741zm-.553.385a6.19 6.19 0 0 0 -.712.61l1.415 1.414a4.26 4.26 0 0 1 .482-.413l-1.186-1.611zm-.712.61c-.528.529-.913 1.14-1.119 1.833l1.917.569c.1-.336.294-.665.617-.988zm-1.118 1.829a3.846 3.846 0 0 0 -.056 2.05l1.943-.474a1.85 1.85 0 0 1 .028-.999zm-.057 2.045a3.83 3.83 0 0 0 1.049 1.837l1.414-1.414a1.84 1.84 0 0 1 -.518-.886zm1.049 1.837 5.653 5.653 1.414-1.414-5.653-5.653zm5.653 4.239-1.802 1.802 1.414 1.414 1.802-1.802zm2.81-5.554.316-.949zm-5.195-8.208.973.232zm4.544-4.544.232.973zm8.208 5.195-.949.316zm.163 3.176.972.232zm-2.23-.495-.994-.107zm-.368-2.006-.907.421.003.006zm-3.26-3.261-.43.903.009.004zm-2.019-.379.101.994-.1-.994zm-2.808 2.808-.995-.107v.006zm.373 2.025-.906.423.002.004zm3.26 3.26-.427.904.007.003zm2.014.362.107.994.006-.001zm2.655-.153c-.756.756-1.553 1.21-2.393 1.41l.464 1.945c1.249-.298 2.364-.961 3.343-1.941zm-2.393 1.41c-.854.203-1.722.163-2.628-.139l-.632 1.898c1.24.413 2.488.481 3.724.186zm-2.628-.139c-.9-.3-1.785-.861-2.653-1.729l-1.414 1.414c1.045 1.045 2.188 1.797 3.435 2.213zm-2.653-1.729c-.872-.872-1.438-1.762-1.741-2.667l-1.896.637c.42 1.249 1.175 2.396 2.223 3.444l1.415-1.414zm-1.741-2.667c-.306-.91-.347-1.779-.144-2.631l-1.946-.464c-.295 1.237-.224 2.489.194 3.732zm-.144-2.631c.2-.84.653-1.638 1.41-2.394l-1.415-1.414c-.98.98-1.643 2.095-1.94 3.344zm1.41-2.394c.756-.756 1.553-1.209 2.393-1.409l-.464-1.946c-1.249.298-2.364.962-3.344 1.941zm2.393-1.409c.852-.204 1.722-.162 2.632.144l.636-1.896c-1.243-.418-2.495-.489-3.732-.194zm2.632.144c.904.303 1.794.869 2.666 1.741l1.415-1.414c-1.049-1.048-2.196-1.804-3.445-2.223zm2.666 1.741c.868.868 1.43 1.754 1.73 2.653l1.897-.633c-.416-1.246-1.168-2.389-2.213-3.434zm1.73 2.653c.301.905.341 1.774.138 2.628l1.945.464c.295-1.236.227-2.485-.186-3.725l-1.898.633zm.138 2.628c-.2.84-.654 1.637-1.41 2.393l1.414 1.414c.98-.979 1.644-2.094 1.941-3.343zm-1.502 2.289c.692-.693 1.138-1.51 1.24-2.444l-1.99-.215c-.043.4-.232.812-.664 1.244zm1.24-2.444c.093-.869-.071-1.723-.459-2.542l-1.808.855c.247.523.328 1.007.278 1.472l1.988.215zm-.456-2.535c-.368-.795-.895-1.524-1.562-2.191l-1.414 1.414c.523.523.904 1.063 1.162 1.619zm-1.562-2.191a7.669 7.669 0 0 0 -2.184-1.556l-.842 1.814a5.68 5.68 0 0 1 1.612 1.156zm-2.175-1.552c-.822-.391-1.678-.56-2.55-.471l.202 1.989c.47-.047.96.037 1.488.288zm-2.55-.471c-.94.095-1.761.539-2.456 1.234l1.414 1.414c.43-.43.842-.618 1.244-.659zm-2.456 1.234c-.698.697-1.145 1.521-1.246 2.462l1.99.213c.043-.408.235-.826.67-1.261zm-1.246 2.468c-.089.87.077 1.725.463 2.549l1.811-.847c-.25-.534-.332-1.028-.284-1.5zm.465 2.553a7.774 7.774 0 0 0 1.558 2.172l1.414-1.414a5.786 5.786 0 0 1 -1.165-1.613l-1.808.855zm1.558 2.172c.665.665 1.39 1.193 2.178 1.565l.855-1.808c-.554-.262-1.094-.647-1.619-1.171zm2.185 1.568c.821.382 1.674.543 2.541.449l-.215-1.988c-.467.05-.956-.029-1.484-.275zm2.547.448c.935-.106 1.754-.555 2.45-1.25l-1.414-1.415c-.438.438-.856.632-1.262.678zm9.07-6.634-.706.707.707.708.707-.708-.707-.707zm-9.256-9.256-.707-.707-.707.707.707.707zm1.73-1.73.707-.707-.707-.707-.707.707zm1.506 1.507-.707.707.707.707.707-.707zm.115-.115.707.707.489-.488-.285-.63zm-.247-2.139.978.206.001-.006-.98-.2zm3.127-3.128.18.984.004-.001zm2.128.259-.397.918.624.269.48-.48zm.096-.096.707.707.459-.459-.232-.605zm-.126-2.236.971.237.002-.006zm4.122-3.435.004 1h.003zm9.389 7.786.707.707.707-.707-.707-.707zm-1.802 1.802-.707.707.707.707.707-.707zm-7.913-6.888-.096-.996zm-2.47 2.712.998-.047v-.006l-.999.053zm6.791 7.768.707.707.707-.707-.707-.707zm-1.796 1.796-.707.707.707.707.707-.707zm-7.834-6.895.013 1zm-2.356 1.983.973.229.001-.004zm.048 1.434-.962.274.003.009zm6.55 7.069.708.707.707-.707-.707-.707-.707.707zm-1.094 1.095-9.257-9.256-1.414 1.414 9.257 9.256zm-9.257-7.842 1.73-1.73-1.414-1.414-1.73 1.73zm.316-1.73 1.506 1.507 1.414-1.414-1.506-1.507zm2.92 1.507.115-.115-1.414-1.414-.115.115zm.32-1.233a2.386 2.386 0 0 1 -.181-1.522l-1.957-.413a4.382 4.382 0 0 0 .314 2.758l1.823-.823zm-.18-1.528c.104-.505.371-1.005.867-1.5l-1.415-1.414c-.726.726-1.217 1.564-1.411 2.513l1.96.401zm.867-1.5c.506-.507.993-.759 1.46-.844l-.357-1.968c-.948.172-1.787.667-2.517 1.398zm1.465-.845c.502-.094 1.01-.038 1.547.194l.793-1.836c-.877-.379-1.788-.495-2.707-.324zm2.65-.017.097-.096-1.414-1.414-.096.096 1.414 1.414zm.324-1.16a2.683 2.683 0 0 1 -.089-1.642l-1.943-.474a4.685 4.685 0 0 0 .164 2.83zm-.087-1.648c.135-.57.452-1.134 1.011-1.694l-1.414-1.414c-.774.775-1.309 1.656-1.543 2.646zm1.011-1.694c.679-.678 1.382-.969 2.142-.972l-.008-2c-1.354.005-2.547.557-3.548 1.558zm2.145-.972c.698-.006 1.517.335 2.468 1.286l1.414-1.414c-1.17-1.171-2.474-1.883-3.897-1.872zm2.468 1.286 6.207 6.207 1.414-1.414-6.207-6.207zm6.207 4.793-1.802 1.802 1.414 1.414 1.802-1.802-1.414-1.414zm-.388 1.802-6.038-6.039-1.415 1.415 6.039 6.038 1.414-1.414zm-6.038-6.039c-.747-.746-1.65-1.237-2.678-1.138l.193 1.991c.216-.021.563.054 1.07.562zm-2.678-1.138c-.87.085-1.63.465-2.256 1.09l1.414 1.414c.323-.322.66-.477 1.035-.513zm-2.256 1.09c-.742.742-1.171 1.642-1.117 2.67l1.997-.105c-.018-.346.103-.72.534-1.151zm-1.117 2.665c.045.971.475 1.82 1.183 2.528l1.414-1.414c-.417-.417-.581-.814-.6-1.208l-1.998.094zm1.183 2.528 5.9 5.9 1.414-1.414-5.9-5.9zm5.9 4.486-1.796 1.795 1.415 1.415 1.795-1.796zm-.382 1.795-6.153-6.153-1.414 1.415 6.153 6.153 1.415-1.415zm-6.153-6.153c-.662-.662-1.472-1.046-2.401-1.034l.026 2c.308-.004.619.106.961.449zm-2.401-1.034c-.918.012-1.718.401-2.376 1.059l1.415 1.414c.347-.348.668-.469.987-.473zm-2.376 1.059a3.47 3.47 0 0 0 -.942 1.699l1.949.45c.066-.287.199-.526.408-.735zm-.941 1.695a3.815 3.815 0 0 0 .06 1.937l1.924-.547a1.817 1.817 0 0 1 -.037-.932zm.063 1.946c.198.674.578 1.269 1.095 1.786l1.415-1.414c-.319-.318-.502-.631-.592-.938zm1.095 1.786 5.707 5.707 1.415-1.414-5.707-5.707zm5.707 4.293-1.801 1.802 1.414 1.414 1.802-1.802zm7.424-30.693.707-.707-.707-.707-.708.707.707.707zm12.342 12.342.707.707.707-.707-.707-.707zm-1.862 1.862-.708.708.708.707.707-.707zm-12.343-12.342-.707-.707-.707.707.707.707zm1.155-1.155 12.343 12.342 1.414-1.414-12.342-12.342zm12.343 10.928-1.863 1.862 1.415 1.415 1.862-1.863zm-.448 1.862-12.343-12.342-1.414 1.414 12.342 12.343zm-12.343-10.928 1.863-1.862-1.415-1.414-1.862 1.862zm16.91 5.517.216.977.007-.002zm-8.124-5.182.947-.323-.001-.002zm-.199-3.188-.975-.221zm3.936-4.37.335.942.006-.002zm2.416-.247-.158.988.006.001zm2.242 1.025.707.707.784-.784-.86-.699zm-1.754 1.753-.536.844.676.431.567-.567zm-1.783-.458.042 1 .006-.001zm-2.767 2.622.985.174v-.002zm.247 1.995.93-.368-.001-.003zm3.454 3.465.379-.925zm2.006.271.161.987.005-.001zm2.477-2.043.935.355.002-.006zm.157-1.253-.995.102.001.01zm-.452-1.26-.707-.707-.564.564.424.675zm1.754-1.754.778-.627-.698-.867-.787.787zm1.018 2.188.984-.179zm-.199 2.417-.946-.322-.001.003zm-2.213 1.607c-.787.786-1.6 1.245-2.439 1.438l.446 1.949c1.266-.29 2.401-.968 3.407-1.973zm-2.432 1.436c-.862.191-1.731.137-2.629-.178l-.662 1.887c1.232.432 2.48.519 3.723.244zm-2.629-.178c-.902-.317-1.774-.877-2.613-1.716l-1.414 1.414c1.017 1.017 2.137 1.758 3.365 2.189zm-2.613-1.716c-.851-.851-1.411-1.73-1.719-2.635l-1.893.645c.422 1.241 1.168 2.374 2.198 3.404zm-1.72-2.637c-.313-.912-.363-1.786-.169-2.643l-1.951-.441c-.28 1.24-.198 2.492.228 3.733zm-.169-2.643c.189-.838.636-1.636 1.395-2.394l-1.414-1.414c-.986.985-1.648 2.108-1.932 3.367zm1.395-2.394c.614-.614 1.248-1.021 1.9-1.254l-.671-1.884c-.971.347-1.852.932-2.643 1.724zm1.906-1.256a3.778 3.778 0 0 1 1.917-.199l.316-1.975a5.767 5.767 0 0 0 -2.916.294zm1.923-.198c.617.095 1.202.356 1.763.812l1.262-1.552c-.813-.661-1.723-1.083-2.72-1.237zm1.687-.671-1.754 1.753 1.414 1.415 1.754-1.754zm-.51 1.617a3.968 3.968 0 0 0 -2.369-.613l.097 1.997c.463-.022.852.082 1.199.303zm-2.363-.614c-.962.042-1.801.489-2.509 1.196l1.415 1.415c.441-.442.831-.597 1.179-.612zm-2.509 1.196c-.634.634-1.049 1.389-1.2 2.253l1.97.344c.074-.422.274-.812.645-1.182zm-1.199 2.25c-.15.846-.032 1.701.303 2.54l1.857-.741c-.219-.55-.266-1.026-.191-1.45zm.302 2.537c.334.847.889 1.633 1.621 2.365l1.414-1.414c-.586-.586-.964-1.15-1.176-1.686zm1.621 2.365c.744.744 1.536 1.311 2.382 1.658l.759-1.85c-.544-.224-1.122-.617-1.727-1.222zm2.382 1.658c.839.344 1.695.472 2.547.333l-.321-1.974c-.434.071-.916.017-1.467-.209zm2.552.332c.872-.146 1.635-.565 2.277-1.207l-1.414-1.414c-.379.379-.773.578-1.194.649zm2.277-1.207c.429-.429.76-.917.969-1.467l-1.869-.71a2.18 2.18 0 0 1 -.514.763zm.971-1.473c.207-.554.28-1.129.214-1.715l-1.988.225a1.67 1.67 0 0 1 -.1.792zm.215-1.705a3.918 3.918 0 0 0 -.6-1.688l-1.694 1.063c.185.295.278.57.304.83zm-.74-.45 1.754-1.753-1.414-1.415-1.754 1.754zm.268-1.833c.435.54.7 1.117.813 1.739l1.968-.358a5.814 5.814 0 0 0 -1.224-2.636zm.813 1.739c.113.617.065 1.25-.161 1.916l1.893.643a5.758 5.758 0 0 0 .236-2.917zm-.162 1.919c-.215.638-.622 1.281-1.266 1.926l1.414 1.414c.818-.818 1.416-1.717 1.747-2.702zm2.707-5.165.316-.949zm-5.195-8.208.973.232zm4.544-4.544.232.973zm8.208 5.195-.949.316zm.163 3.176.972.232zm-2.23-.495-.994-.107zm-.368-2.006-.907.42.003.007zm-3.26-3.26-.43.902.009.004.421-.907zm-2.019-.38.101.995zm-2.808 2.808-.995-.106v.005zm.373 2.025-.906.423.002.005zm3.261 3.26-.428.904.007.003zm2.013.362.107.994.006-.001zm2.655-.153c-.756.756-1.553 1.21-2.393 1.41l.464 1.945c1.249-.298 2.364-.961 3.343-1.941zm-2.393 1.41c-.854.203-1.722.163-2.628-.139l-.632 1.898c1.239.413 2.488.481 3.724.186zm-2.628-.139c-.899-.3-1.785-.861-2.652-1.729l-1.415 1.414c1.045 1.045 2.188 1.797 3.435 2.213zm-2.652-1.729c-.873-.872-1.439-1.762-1.742-2.667l-1.896.637c.419 1.249 1.175 2.396 2.223 3.444zm-1.742-2.667c-.306-.91-.347-1.78-.144-2.631l-1.946-.464c-.295 1.237-.224 2.489.194 3.732zm-.144-2.631c.2-.84.653-1.638 1.409-2.394l-1.414-1.414c-.979.98-1.643 2.095-1.941 3.344zm1.409-2.394c.757-.756 1.554-1.21 2.394-1.41l-.464-1.945c-1.249.298-2.364.962-3.344 1.941zm2.394-1.41c.852-.203 1.722-.161 2.632.145l.636-1.896c-1.243-.418-2.495-.489-3.732-.194l.464 1.946zm2.632.145c.904.303 1.794.87 2.666 1.741l1.414-1.414c-1.048-1.048-2.195-1.804-3.444-2.223zm2.666 1.741c.868.868 1.43 1.754 1.729 2.653l1.898-.633c-.416-1.246-1.168-2.39-2.213-3.434zm1.729 2.653c.302.906.342 1.774.139 2.628l1.945.464c.295-1.236.227-2.485-.186-3.725zm.139 2.628c-.2.84-.654 1.637-1.41 2.393l1.414 1.414c.98-.979 1.644-2.094 1.941-3.343zm-1.502 2.289c.692-.693 1.138-1.51 1.239-2.444l-1.988-.215c-.044.4-.233.812-.665 1.244zm1.239-2.444c.094-.869-.07-1.723-.458-2.542l-1.808.855c.247.523.328 1.007.278 1.472zm-.455-2.535c-.368-.795-.895-1.524-1.562-2.19l-1.414 1.413c.523.523.904 1.063 1.162 1.619l1.814-.843zm-1.562-2.19a7.635 7.635 0 0 0 -2.184-1.557l-.842 1.814a5.663 5.663 0 0 1 1.612 1.156l1.414-1.414zm-2.175-1.553c-.822-.39-1.678-.56-2.55-.471l.202 1.99c.47-.048.96.036 1.488.287zm-2.55-.471c-.94.096-1.761.539-2.456 1.234l1.414 1.414c.43-.43.842-.618 1.244-.659l-.202-1.99zm-2.456 1.234c-.698.697-1.145 1.521-1.246 2.463l1.989.212c.044-.408.236-.826.671-1.261zm-1.246 2.468c-.089.87.077 1.725.462 2.549l1.812-.847c-.249-.534-.332-1.028-.284-1.5zm.464 2.554c.373.786.898 1.51 1.559 2.171l1.414-1.414a5.807 5.807 0 0 1 -1.165-1.613zm1.559 2.171c.665.665 1.391 1.193 2.178 1.565l.855-1.808c-.554-.262-1.094-.647-1.619-1.171zm2.185 1.568c.821.382 1.674.543 2.541.449l-.215-1.988c-.467.05-.956-.029-1.484-.275zm2.547.448c.935-.106 1.754-.555 2.45-1.25l-1.414-1.415c-.438.438-.856.632-1.262.678zm10.873-8.436.707.708.707-.708-.707-.707zm-1.802 1.802-.707.707.707.708.707-.708zm-9.257-9.256-.707-.707-.707.707.707.707zm1.73-1.73.707-.707-.707-.707-.708.707zm1.506 1.507-.707.707.707.707.707-.707zm.115-.115.707.707.464-.463-.241-.61zm-.181-2.181-.978-.209-.001.004zm3.339-3.435.271.962.007-.002zm2.272.066-.314.95zm8.202 7.418.707.707.707-.707-.707-.707zm-1.802 1.802-.707.707.707.707.707-.707zm-7.768-6.72-.044 1h.005zm-2.857 2.255-.962-.275-.001.005zm.03 1.56-.958.287.001.004.957-.29zm.269 2.238 5.496 5.497 1.415-1.415-5.497-5.496zm5.496 4.082-1.801 1.802 1.414 1.414 1.802-1.801zm-.387 1.802-9.257-9.256-1.414 1.414 9.257 9.256zm-9.257-7.842 1.73-1.73-1.415-1.414-1.729 1.73zm.315-1.73 1.507 1.507 1.414-1.414-1.506-1.507zm2.921 1.507.115-.115-1.414-1.414-.115.115zm.338-1.189a2.735 2.735 0 0 1 -.132-1.61l-1.958-.409a4.74 4.74 0 0 0 .229 2.753zm-.133-1.606c.111-.521.417-1.081 1.013-1.677l-1.415-1.414c-.794.795-1.344 1.685-1.554 2.674zm1.013-1.677c.529-.53 1.07-.849 1.619-1.004l-.543-1.925c-.929.263-1.759.783-2.491 1.515zm1.626-1.006c.527-.153 1.078-.143 1.68.055l.627-1.899c-.957-.315-1.92-.35-2.864-.077zm1.68.055c.592.196 1.234.602 1.921 1.289l1.414-1.415c-.841-.84-1.741-1.454-2.708-1.773l-.627 1.9zm1.921 1.289 5.887 5.888 1.415-1.415-5.888-5.888zm5.887 4.473-1.801 1.802 1.414 1.414 1.802-1.802zm-.387 1.802-5.671-5.67-1.414 1.413 5.671 5.671zm-5.671-5.67c-.794-.794-1.718-1.301-2.766-1.341l-.077 1.998c.406.016.88.208 1.429.757l1.414-1.415zm-2.761-1.341c-1.062-.047-1.993.39-2.763 1.16l1.414 1.414c.451-.452.861-.594 1.262-.576zm-2.763 1.16c-.523.522-.902 1.13-1.099 1.818l1.923.55c.093-.324.277-.642.59-.954l-1.414-1.415zm-1.1 1.823a3.747 3.747 0 0 0 .035 2.117l1.916-.573a1.758 1.758 0 0 1 -.025-1.005zm.036 2.12c.219.723.648 1.37 1.226 1.948l1.414-1.414c-.402-.402-.623-.775-.726-1.114zm15.392-15.218.819.573.618-.884-.927-.55-.51.86zm-1.344 1.922-.453.892.775.393.497-.712zm-.922-.271-.132.991.014.002zm-1.055.127-.328-.945zm-2.049 2.374.98.201.001-.008zm3.025 1.145.526.85.005-.003zm1.808-1.133-.529-.848h-.002zm2.815-.994.009 1zm3.224 2.935-.989.147v.001zm-.32 2.344-.928-.37-.001.002zm-4.803 4.212.187.983.004-.001zm-3.103-.693-.806-.592-.609.828.845.586zm1.476-2.007.524-.852-.784-.481-.545.74zm1.7.362.18.984.008-.002zm2.712-2.76.984.178.001-.007zm-1.435-1.844.04 1 .009-.001-.049-1zm-1.428.536-.533-.846-.006.004zm-1.91 1.224.532.846.007-.004zm-2.857.976-.024 1h.005zm-3.224-2.91-.99.144.99-.145zm.307-2.225.928.374.002-.006zm4.514-3.91.138.99.005-.001-.143-.99zm2.049.017-1.344 1.922 1.639 1.146 1.344-1.922zm-.072 1.603a3.732 3.732 0 0 0 -1.256-.372l-.236 1.986c.231.028.424.087.587.17zm-1.243-.37a3.27 3.27 0 0 0 -1.514.173l.657 1.889c.246-.086.439-.1.594-.08zm-1.514.173c-.553.192-1.049.546-1.494.99l1.414 1.415c.303-.302.55-.451.737-.516zm-1.494.99c-.616.617-1.049 1.328-1.208 2.135l1.962.387c.066-.333.256-.703.66-1.107l-1.414-1.414zm-1.206 2.127c-.173.841.001 1.662.634 2.295l1.414-1.414c-.083-.082-.15-.185-.089-.478zm.634 2.295c.51.51 1.164.762 1.893.692l-.191-1.99c-.107.01-.18-.007-.288-.116zm1.893.692c.646-.062 1.327-.372 2.003-.79l-1.051-1.7c-.586.361-.953.481-1.143.5zm2.008-.793 1.808-1.133-1.062-1.694-1.808 1.133zm1.807-1.132c.964-.602 1.72-.837 2.294-.842l-.019-2c-1.081.01-2.201.438-3.334 1.146zm2.294-.842c.526-.005 1.018.187 1.507.677l1.415-1.414c-.82-.82-1.812-1.274-2.941-1.263zm1.507.677c.408.407.639.868.719 1.405l1.978-.295a4.435 4.435 0 0 0 -1.282-2.524zm.719 1.406c.082.546.011 1.147-.259 1.825l1.857.742c.381-.954.523-1.915.38-2.864zm-.26 1.828c-.262.66-.71 1.328-1.381 1.999l1.415 1.414c.824-.824 1.444-1.715 1.825-2.677zm-1.381 1.999c-.939.939-1.835 1.435-2.683 1.6l.381 1.963c1.345-.261 2.582-1.015 3.717-2.149zm-2.679 1.599c-.823.156-1.587-.006-2.348-.533l-1.139 1.644c1.176.815 2.481 1.115 3.86.854zm-2.112.882 1.477-2.007-1.611-1.185-1.477 2.007zm.148-1.747c.741.455 1.556.648 2.403.493l-.36-1.968c-.295.054-.613.006-.996-.23zm2.411.491c.818-.157 1.544-.613 2.182-1.251l-1.414-1.414c-.447.446-.83.64-1.144.7zm2.182-1.251c.682-.682 1.17-1.452 1.326-2.313l-1.968-.356c-.061.336-.273.756-.772 1.255zm1.327-2.32c.147-.847-.021-1.681-.658-2.319l-1.414 1.415c.078.078.163.204.101.562zm-.658-2.319a2.337 2.337 0 0 0 -1.81-.695l.097 1.998a.344.344 0 0 1 .299.112l1.414-1.414zm-1.801-.695c-.657.025-1.307.302-1.922.689l1.066 1.692c.47-.295.772-.376.934-.383zm-1.928.693-1.911 1.224 1.079 1.684 1.91-1.224zm-1.904 1.219c-.971.61-1.729.834-2.305.823l-.038 2c1.112.02 2.258-.406 3.408-1.13zm-2.3.823c-.554-.013-1.066-.227-1.565-.726l-1.414 1.415c.819.819 1.806 1.284 2.931 1.31zm-1.565-.726c-.405-.405-.622-.843-.694-1.33l-1.979.29c.138.943.572 1.767 1.259 2.454zm-.694-1.33c-.075-.515-.007-1.078.246-1.705l-1.855-.748c-.366.908-.503 1.828-.37 2.743zm.248-1.71c.247-.624.662-1.245 1.278-1.861l-1.414-1.414c-.774.774-1.359 1.619-1.724 2.538l1.86.736zm1.278-1.861c.905-.906 1.721-1.328 2.444-1.428l-.276-1.981c-1.294.18-2.487.899-3.582 1.995zm2.449-1.43c.768-.11 1.496.035 2.216.462l1.02-1.72c-1.096-.65-2.281-.9-3.521-.72l.285 1.979zm13.145 2.621.354.936.002-.001zm-2.778.32.164-.987zm-2.338-1.23.711-.703-.01-.01zm-1.121-1.76-.949.317.001.003zm-.205-2 .992.125.001-.007zm.699-1.832.817.576.486-.688-.596-.595zm-.072-.073.707-.707-.557-.556-.671.41zm-2.465.489-.158.987zm-2.308-1.212.711-.703-.009-.008zm-1.188-2.187-.983.183.001.002zm.229-2.58.944.332zm4.05-4.037.324.946.008-.003zm2.58-.23-.184.984h.004l.18-.983zm2.199 1.164.712-.703-.009-.009zm.723 4.773-.856-.516-.404.67.553.553zm.073.072-.707.707.594.595.688-.484zm1.814-.681.108.994.011-.001zm1.994.21-.316.95.011.003.305-.952zm1.784 1.098.712-.703-.01-.01zm1.218 2.35-.987.164zm-.326 2.784-.934-.356-.001.003zm-2.278-.385.936.353.003-.008zm.151-1.585.981-.194-.001-.005zm-.771-1.398.713-.7-.006-.008-.007-.006zm-1.477-.802-.202.98.009.001zm-1.663.108-.312-.95zm-2.58 2.58-.948-.317zm-.114 1.67-.98.2zm.819 1.457.714-.7-.006-.007-.007-.006zm1.381.79-.208.978.007.002.007.001zm1.591-.157.348.938.009-.004zm-3.309-8.166-.953-.302zm.06-1.434-.975.221.002.01.973-.23zm-.747-1.314.714-.7-.007-.007-.007-.007zm-1.29-.735-.234.972.009.002zm-1.41.072.312.95.009-.002zm-2.224 2.224.947.321.002-.005zm.681 2.682.715-.7-.008-.007-.007-.007zm1.296.765.231-.973zm1.434-.06.302.953.005-.001zm7.917 5.7c-.783.782-1.579 1.309-2.385 1.616l.712 1.869c1.115-.425 2.142-1.127 3.087-2.072l-1.414-1.414zm-2.383 1.615c-.812.307-1.559.385-2.26.268l-.328 1.973c1.091.181 2.196.046 3.296-.37zm-2.26.268c-.68-.113-1.27-.418-1.791-.945l-1.423 1.405c.805.815 1.774 1.329 2.886 1.513zm-1.801-.955a3.458 3.458 0 0 1 -.875-1.367l-1.895.64a5.451 5.451 0 0 0 1.367 2.152zm-.874-1.364a3.49 3.49 0 0 1 -.161-1.56l-1.984-.249a5.473 5.473 0 0 0 .248 2.442zm-.16-1.566c.061-.513.235-.965.523-1.374l-1.634-1.153a4.938 4.938 0 0 0 -.875 2.29zm.413-2.657-.072-.073-1.414 1.414.072.073zm-1.3-.22a2.524 2.524 0 0 1 -1.786.355l-.316 1.975a4.522 4.522 0 0 0 3.144-.622l-1.042-1.708zm-1.786.355c-.659-.105-1.237-.403-1.755-.927l-1.423 1.406c.8.81 1.761 1.32 2.862 1.496zm-1.764-.935c-.498-.492-.79-1.04-.907-1.662l-1.965.37c.196 1.043.696 1.953 1.467 2.715zm-.907-1.66c-.121-.652-.067-1.334.19-2.064l-1.887-.663c-.362 1.03-.46 2.067-.269 3.094zm.19-2.064c.253-.719.697-1.414 1.367-2.083l-1.415-1.415c-.849.85-1.473 1.794-1.839 2.835zm1.367-2.083c.659-.66 1.347-1.095 2.063-1.34l-.648-1.893c-1.043.358-1.986.975-2.83 1.818zm2.071-1.343c.73-.257 1.412-.311 2.064-.19l.367-1.965c-1.027-.192-2.065-.094-3.094.268zm2.068-.189c.629.115 1.182.403 1.677.891l1.405-1.423a5.129 5.129 0 0 0 -2.723-1.435zm1.668.883c.519.524.813 1.11.916 1.776l1.977-.306c-.171-1.102-.671-2.067-1.47-2.876zm.916 1.776c.102.659-.012 1.237-.338 1.778l1.713 1.031c.574-.953.773-2.006.602-3.115zm-.189 3 .073.073 1.414-1.414-.072-.073-1.415 1.415zm1.355.184a2.82 2.82 0 0 1 1.347-.505l-.216-1.988a4.82 4.82 0 0 0 -2.282.857zm1.358-.506a3.523 3.523 0 0 1 1.559.167l.633-1.898a5.528 5.528 0 0 0 -2.431-.255zm1.57.17a3.47 3.47 0 0 1 1.388.857l1.403-1.425a5.469 5.469 0 0 0 -2.18-1.336zm1.378.848c.524.53.829 1.127.942 1.81l1.973-.327c-.184-1.108-.69-2.077-1.492-2.89zm.942 1.81c.116.7.038 1.449-.273 2.265l1.869.712c.42-1.103.558-2.211.377-3.304l-1.973.328zm-.274 2.268c-.303.801-.824 1.59-1.598 2.364l1.414 1.414c.938-.938 1.634-1.96 2.055-3.071zm-1.708 2.254c.586-.587 1.035-1.23 1.301-1.933l-1.871-.707c-.144.382-.411.792-.845 1.225zm1.304-1.941c.256-.698.333-1.412.193-2.123l-1.962.386c.061.31.037.651-.108 1.046l1.877.69zm.192-2.13c-.147-.724-.509-1.36-1.038-1.899l-1.427 1.4c.29.297.443.594.505.898l1.96-.398zm-1.051-1.912a3.873 3.873 0 0 0 -1.984-1.07l-.386 1.963c.342.068.662.233.969.534zm-1.975-1.067a4.185 4.185 0 0 0 -2.177.137l.624 1.9a2.186 2.186 0 0 1 1.149-.079l.404-1.959zm-2.177.137c-.733.241-1.386.668-1.962 1.244l1.414 1.414c.388-.388.779-.629 1.172-.758zm-1.962 1.244c-.58.579-1.009 1.235-1.254 1.97l1.897.632c.133-.398.378-.795.771-1.188zm-1.254 1.97a4.172 4.172 0 0 0 -.146 2.187l1.959-.404a2.183 2.183 0 0 1 .084-1.151zm-.146 2.187c.157.758.537 1.418 1.099 1.97l1.401-1.427c-.305-.3-.472-.612-.541-.947zm1.086 1.957c.53.54 1.16.913 1.886 1.067l.415-1.956c-.295-.063-.584-.216-.874-.512l-1.427 1.4zm1.9 1.07c.715.14 1.433.06 2.133-.2l-.697-1.875c-.401.15-.743.173-1.049.113zm2.142-.204c.705-.27 1.35-.721 1.941-1.311l-1.415-1.415c-.438.439-.853.71-1.241.858zm-3.803-7.055c.507-.506.883-1.087 1.09-1.743l-1.906-.604c-.098.309-.285.62-.598.933zm1.09-1.743c.205-.648.236-1.31.08-1.967l-1.946.462c.069.291.06.585-.04.901zm.082-1.957c-.154-.683-.506-1.28-1.008-1.792l-1.428 1.4c.278.283.424.56.486.834zm-1.022-1.807c-.504-.493-1.093-.84-1.765-.995l-.45 1.949c.269.061.539.204.815.475l1.4-1.43zm-1.755-.993a3.49 3.49 0 0 0 -1.966.097l.642 1.895c.303-.103.581-.114.855-.048zm-1.956.094c-.652.214-1.23.596-1.74 1.105l1.414 1.414c.326-.326.644-.518.949-.618l-.623-1.9zm-1.74 1.105c-.515.516-.903 1.099-1.121 1.753l1.897.632c.103-.31.302-.634.638-.97zm-1.12 1.748a3.494 3.494 0 0 0 -.097 1.966l1.944-.47a1.5 1.5 0 0 1 .047-.854zm-.097 1.966c.162.672.521 1.257 1.026 1.751l1.399-1.428c-.275-.27-.418-.533-.481-.792zm1.011 1.737c.503.513 1.096.876 1.779 1.038l.462-1.946c-.265-.063-.535-.21-.812-.492zm1.779 1.038a3.645 3.645 0 0 0 1.967-.08l-.604-1.906c-.316.1-.61.11-.901.04zm1.972-.081c.659-.213 1.244-.594 1.756-1.107l-1.414-1.414c-.323.323-.642.516-.955.617zm6.382-17.633-.707-.707-.707.707.707.708zm2.26-2.26.386-.922-.619-.26-.474.475.707.708zm13.523 5.665-.386.923.619.259.475-.475zm.145-.144.707.707.475-.475-.26-.619zm-5.665-13.524-.707-.707-.474.475.259.619zm2.26-2.26.707-.707-.707-.707-.707.707zm12.342 12.343.707.707.708-.707-.708-.707zm-1.771 1.771-.708.708.708.707.707-.707zm-8.932-8.93.707-.708-.707-.707-.707.707.707.707zm-.114.114-.707-.708-.475.476.26.619zm5.273 12.553.707.707.475-.475-.26-.62zm-1.47 1.47-.388.922.619.26.476-.475zm-12.56-5.279.388-.922-.62-.26-.475.475zm-.114.115-.707-.708-.707.708.707.707zm8.937 8.937.707.707.707-.707-.707-.707zm-1.772 1.772-.707.707.707.707.707-.707zm-11.635-11.635 2.26-2.26-1.414-1.415-2.26 2.26zm1.167-2.045 13.523 5.665.773-1.845-13.524-5.665zm14.617 5.45.144-.145-1.414-1.414-.145.144 1.415 1.414zm.359-1.239-5.664-13.523-1.845.773 5.665 13.523zm-5.88-12.43 2.26-2.26-1.414-1.414-2.26 2.26zm.846-2.26 12.342 12.343 1.414-1.414-12.342-12.343zm12.342 10.928-1.772 1.772 1.415 1.415 1.771-1.772-1.414-1.414zm-.357 1.772-8.932-8.931-1.414 1.414 8.931 8.931zm-10.346-8.931-.114.114 1.414 1.415.114-.115zm-.329 1.209 5.273 12.553 1.844-.775-5.273-12.553zm5.488 11.459-1.471 1.47 1.415 1.414 1.47-1.47zm-.376 1.255-12.559-5.279-.775 1.844 12.559 5.28zm-13.654-5.064-.114.114 1.414 1.415.114-.115zm-.114 1.529 8.937 8.937 1.414-1.414-8.937-8.938zm8.937 7.523-1.772 1.771 1.414 1.415 1.772-1.772zm-.358 1.771-12.342-12.342-1.414 1.415 12.342 12.342zm12.102-16.26.317-.948zm-5.195-8.208.973.232zm4.544-4.544.232.973zm8.209 5.195-.949.316zm.162 3.176.973.232zm-2.23-.494-.994-.108zm-.367-2.007-.907.421.003.007zm-3.26-3.26-.43.903.008.004zm-2.019-.38.101.995zm-2.809 2.809-.994-.107-.001.005zm.374 2.024-.906.424.002.004zm3.26 3.26-.427.905.006.003.421-.907zm2.013.362.108.995.005-.001zm2.656-.152c-.756.756-1.554 1.209-2.394 1.41l.464 1.945c1.249-.298 2.364-.962 3.344-1.941zm-2.394 1.41c-.853.203-1.722.163-2.627-.14l-.633 1.898c1.24.413 2.488.481 3.724.187l-.464-1.946zm-2.627-.14c-.9-.3-1.785-.86-2.653-1.728l-1.414 1.414c1.045 1.044 2.188 1.797 3.434 2.212l.633-1.897zm-2.653-1.728c-.872-.872-1.438-1.763-1.742-2.667l-1.896.637c.42 1.249 1.176 2.396 2.224 3.444zm-1.742-2.667c-.305-.91-.347-1.78-.144-2.632l-1.945-.464c-.295 1.238-.224 2.49.193 3.733zm-.144-2.632c.201-.84.654-1.637 1.41-2.393l-1.414-1.414c-.98.98-1.643 2.094-1.941 3.343zm1.41-2.393c.756-.756 1.553-1.21 2.393-1.41l-.463-1.945c-1.25.297-2.365.961-3.344 1.94zm2.393-1.41c.852-.203 1.722-.162 2.632.144l.637-1.896c-1.244-.417-2.495-.489-3.733-.193zm2.632.144c.904.304 1.795.87 2.667 1.742l1.414-1.414c-1.048-1.049-2.195-1.804-3.444-2.224zm2.667 1.742c.867.868 1.429 1.753 1.729 2.652l1.897-.632c-.415-1.246-1.167-2.39-2.212-3.434zm1.729 2.652c.302.906.342 1.775.139 2.628l1.945.464c.295-1.236.226-2.484-.187-3.724zm.139 2.628c-.201.84-.654 1.638-1.41 2.394l1.414 1.414c.979-.98 1.643-2.095 1.941-3.344zm-1.503 2.29c.693-.693 1.138-1.51 1.24-2.444l-1.989-.216c-.043.4-.232.813-.665 1.245l1.414 1.414zm1.24-2.444c.094-.87-.071-1.723-.458-2.543l-1.808.856c.247.522.328 1.007.277 1.471zm-.455-2.536c-.369-.794-.895-1.523-1.562-2.19l-1.414 1.414c.522.522.904 1.062 1.162 1.618zm-1.562-2.19a7.649 7.649 0 0 0 -2.184-1.556l-.843 1.814a5.653 5.653 0 0 1 1.613 1.156zm-2.176-1.552c-.821-.391-1.677-.56-2.55-.472l.203 1.99c.469-.048.959.036 1.488.288zm-2.55-.472c-.939.096-1.761.54-2.456 1.234l1.415 1.414c.43-.43.842-.617 1.244-.658zm-2.456 1.234c-.697.698-1.144 1.521-1.245 2.463l1.989.213c.043-.409.235-.826.671-1.262zm-1.246 2.468c-.088.87.078 1.726.463 2.55l1.812-.847c-.25-.534-.333-1.029-.285-1.5zm.465 2.554c.372.787.897 1.51 1.559 2.172l1.414-1.414c-.519-.52-.903-1.058-1.165-1.613zm1.559 2.172c.665.665 1.39 1.192 2.178 1.565l.855-1.808c-.554-.262-1.095-.647-1.619-1.171zm2.184 1.568c.822.381 1.675.543 2.542.448l-.216-1.988c-.466.05-.955-.029-1.484-.274zm2.547.448c.936-.107 1.755-.555 2.45-1.25l-1.414-1.415c-.437.438-.856.632-1.262.678zm7.113-8.834.316-.949-.316.95zm-5.195-8.208.972.232zm4.544-4.544.232.973zm8.208 5.195-.949.316zm.162 3.176.973.232zm-2.229-.494-.995-.108zm-.368-2.007-.907.421.003.007zm-3.26-3.26-.43.902.009.005zm-2.019-.38.101.995zm-2.808 2.808-.995-.106v.005zm.373 2.025-.906.424.002.004zm3.26 3.26-.427.904.006.003zm2.013.362.108.994h.005zm2.656-.153c-.756.756-1.553 1.21-2.393 1.41l.463 1.946c1.25-.298 2.365-.962 3.344-1.941zm-2.393 1.41c-.854.204-1.723.163-2.628-.139l-.633 1.898c1.24.413 2.489.481 3.724.187zm-2.628-.139c-.9-.3-1.785-.86-2.653-1.729l-1.414 1.415c1.045 1.044 2.188 1.796 3.434 2.212zm-2.653-1.729c-.872-.872-1.438-1.762-1.742-2.666l-1.896.636c.42 1.25 1.176 2.396 2.224 3.445zm-1.742-2.666c-.305-.91-.347-1.78-.144-2.632l-1.945-.464c-.295 1.238-.224 2.489.193 3.732zm-.144-2.632c.201-.84.654-1.637 1.41-2.393l-1.414-1.415c-.98.98-1.643 2.095-1.941 3.344zm1.41-2.393c.756-.757 1.554-1.21 2.394-1.41l-.464-1.946c-1.249.298-2.365.962-3.344 1.941zm2.394-1.41c.851-.203 1.721-.162 2.631.144l.637-1.896c-1.243-.418-2.495-.489-3.732-.194zm2.631.144c.905.303 1.795.87 2.667 1.742l1.414-1.415c-1.048-1.048-2.195-1.804-3.444-2.223zm2.667 1.742c.868.867 1.429 1.753 1.729 2.652l1.897-.632c-.415-1.246-1.167-2.39-2.212-3.435zm1.729 2.652c.302.906.342 1.774.139 2.628l1.945.464c.295-1.236.227-2.485-.187-3.724zm.139 2.628c-.201.84-.654 1.637-1.41 2.393l1.414 1.415c.98-.98 1.643-2.095 1.941-3.344zm-1.502 2.289c.692-.693 1.138-1.51 1.239-2.444l-1.989-.215c-.043.4-.232.812-.665 1.245zm1.239-2.444c.094-.869-.07-1.722-.458-2.542l-1.808.856c.247.522.328 1.007.277 1.47l1.989.217zm-.455-2.535a7.667 7.667 0 0 0 -1.562-2.19l-1.414 1.414c.522.522.904 1.062 1.162 1.618zm-1.562-2.19a7.647 7.647 0 0 0 -2.184-1.556l-.842 1.814a5.663 5.663 0 0 1 1.612 1.156l1.414-1.415zm-2.175-1.552c-.822-.392-1.678-.56-2.55-.472l.202 1.99c.47-.048.96.036 1.488.287zm-2.55-.472c-.94.096-1.762.54-2.456 1.234l1.414 1.414c.43-.43.842-.617 1.244-.658zm-2.456 1.234c-.698.698-1.145 1.521-1.246 2.463l1.989.213c.044-.409.236-.827.671-1.262zm-1.246 2.468c-.089.87.077 1.726.462 2.55l1.812-.847c-.25-.534-.333-1.029-.285-1.5zm.464 2.554c.372.787.897 1.51 1.559 2.172l1.414-1.415a5.81 5.81 0 0 1 -1.165-1.613zm1.559 2.172c.665.665 1.39 1.192 2.178 1.564l.855-1.808c-.554-.262-1.095-.647-1.619-1.17l-1.414 1.413zm2.184 1.567c.822.382 1.675.543 2.542.45l-.215-1.99c-.467.051-.956-.028-1.484-.274zm2.547.449c.936-.107 1.755-.556 2.451-1.251l-1.415-1.414c-.437.437-.855.631-1.262.678zm9.011-20.568.82.573.617-.883-.927-.55zm-1.344 1.923-.452.892.774.392.498-.711zm-.922-.271-.131.991.013.002zm-1.054.126-.329-.944zm-2.049 2.375.979.201.002-.008zm3.025 1.145.525.85.006-.003zm1.808-1.133-.53-.848h-.001zm2.814-.995.01 1zm3.224 2.935-.989.148v.001zm-.319 2.345-.929-.371-.001.002zm-4.803 4.212.186.982h.004zm-3.104-.693-.805-.593-.61.829.846.586zm1.477-2.007.523-.852-.784-.481-.545.74zm1.699.362.18.983.008-.001zm2.712-2.76.984.178.001-.008zm-1.434-1.845.039 1h.009zm-1.429.537-.532-.846-.007.004zm-1.91 1.223.532.847.007-.005zm-2.857.977-.023 1h.004zm-3.224-2.911-.989.144zm.308-2.224.927.374.002-.006zm4.514-3.911.138.99h.004zm2.049.017-1.344 1.923 1.639 1.146 1.344-1.923zm-.072 1.604a3.747 3.747 0 0 0 -1.257-.372l-.236 1.986c.232.027.425.087.588.17zm-1.243-.37a3.276 3.276 0 0 0 -1.515.173l.657 1.889c.246-.086.44-.1.595-.08l.263-1.983zm-1.515.173c-.553.192-1.049.546-1.493.99l1.414 1.415c.302-.303.55-.451.736-.516l-.657-1.89zm-1.493.99c-.617.617-1.049 1.328-1.209 2.135l1.963.387c.065-.334.256-.703.66-1.107zm-1.207 2.127c-.173.84.001 1.662.634 2.295l1.414-1.414c-.082-.083-.149-.186-.089-.478zm.634 2.295c.51.51 1.164.762 1.894.692l-.192-1.991c-.106.01-.179-.007-.288-.115zm1.894.692c.646-.062 1.327-.372 2.002-.79l-1.051-1.701c-.586.362-.953.482-1.143.5l.192 1.99zm2.008-.793 1.808-1.133-1.062-1.695-1.808 1.133zm1.806-1.132c.965-.602 1.721-.837 2.295-.843l-.02-2c-1.081.01-2.201.439-3.334 1.146zm2.295-.843c.526-.005 1.017.188 1.507.678l1.414-1.415c-.82-.82-1.811-1.274-2.941-1.263zm1.507.678c.407.407.638.867.718 1.405l1.978-.295a4.429 4.429 0 0 0 -1.282-2.525zm.718 1.406c.082.545.012 1.147-.259 1.825l1.858.741c.38-.953.522-1.914.379-2.864zm-.26 1.827c-.262.661-.71 1.329-1.38 2l1.414 1.414c.824-.824 1.444-1.715 1.826-2.677zm-1.38 2c-.939.939-1.835 1.435-2.684 1.6l.381 1.963c1.346-.262 2.583-1.015 3.717-2.15zm-2.68 1.599c-.822.156-1.587-.006-2.347-.533l-1.139 1.644c1.176.815 2.48 1.115 3.859.853l-.373-1.965zm-2.111.882 1.476-2.007-1.611-1.185-1.476 2.006zm.147-1.748c.742.456 1.556.648 2.403.493l-.36-1.967c-.294.054-.613.006-.996-.23zm2.411.492c.819-.157 1.544-.613 2.183-1.252l-1.415-1.414c-.446.447-.829.641-1.144.701zm2.183-1.252c.682-.682 1.169-1.451 1.325-2.312l-1.968-.357c-.061.336-.273.756-.772 1.255l1.415 1.415zm1.326-2.32c.147-.847-.02-1.68-.658-2.318l-1.414 1.414c.078.078.164.204.102.563zm-.658-2.318a2.334 2.334 0 0 0 -1.81-.695l.097 1.997a.344.344 0 0 1 .299.112zm-1.8-.696c-.657.026-1.308.303-1.922.69l1.065 1.692c.47-.296.772-.377.935-.383zm-1.929.694-1.91 1.223 1.078 1.684 1.911-1.223zm-1.903 1.219c-.971.61-1.73.834-2.305.823l-.039 2c1.112.02 2.258-.407 3.408-1.13zm-2.301.823c-.553-.014-1.065-.227-1.564-.726l-1.414 1.414c.818.82 1.805 1.284 2.931 1.311l.047-2zm-1.564-.726c-.406-.405-.623-.843-.694-1.33l-1.979.29c.138.943.571 1.767 1.259 2.454zm-.694-1.33c-.076-.516-.008-1.078.245-1.705l-1.855-.748c-.366.908-.503 1.828-.369 2.742zm.247-1.711c.247-.623.662-1.245 1.278-1.86l-1.414-1.415c-.774.774-1.359 1.62-1.723 2.539zm1.278-1.86c.906-.906 1.721-1.328 2.445-1.429l-.277-1.98c-1.293.18-2.486.899-3.582 1.994l1.414 1.414zm2.449-1.43c.769-.11 1.496.035 2.216.462l1.02-1.72c-1.096-.65-2.281-.9-3.521-.721l.285 1.98zm12.802 2.723.242.97.007-.001zm-3.176-.138-.32.947.006.002.314-.95zm-5.02-5.02-.947.32.001.004zm-.199-3.188-.975-.22-.001.002zm3.423-4.122-.432-.902zm2.134-.507.026 1zm2.362.519-.409.912.002.001zm3.116 2.44.707.708.707-.708-.707-.707zm-7.359 7.359-.707.707.707.707.707-.707zm-1.35-1.35-.707-.707-.707.707.707.707zm5.593-5.593.707.707.707-.707-.707-.707zm-1.549-.97-.3.954.005.001zm-1.687-.06.231.973.005-.002zm-2.489 2.597.979.204v-.003l-.979-.2zm.096 1.832-.952.305.001.004zm3.942 3.893-.317.949.007.002.31-.95zm1.916.073.256.966.007-.002zm2.507-2.122.898.44.006-.012zm.283-1.175-1-.02zm-.259-1.2-.57-.82-.685.475.345.76.91-.414zm2.013-1.397.868-.497-.542-.947-.897.622zm.585 2.055-1 .033zm-.446 2.193.915.403.002-.004zm-2.202 1.402c-.81.81-1.638 1.294-2.483 1.51l.498 1.938c1.252-.322 2.385-1.019 3.399-2.033zm-2.476 1.509c-.857.213-1.723.18-2.62-.118l-.628 1.9c1.24.41 2.492.468 3.732.159zm-2.613-.116c-.897-.303-1.784-.869-2.657-1.742l-1.414 1.414c1.047 1.047 2.189 1.803 3.43 2.223zm-2.657-1.742c-.86-.86-1.426-1.746-1.738-2.655l-1.892.65c.427 1.243 1.179 2.382 2.216 3.42zm-1.737-2.65c-.311-.92-.36-1.796-.17-2.65l-1.952-.436c-.275 1.235-.192 2.484.228 3.726zm-.17-2.648c.19-.84.632-1.632 1.377-2.376l-1.415-1.414c-.975.975-1.629 2.093-1.913 3.35zm1.377-2.376a5.407 5.407 0 0 1 1.502-1.064l-.864-1.804a7.423 7.423 0 0 0 -2.053 1.454zm1.502-1.064a4.201 4.201 0 0 1 1.728-.409l-.053-2a6.203 6.203 0 0 0 -2.539.605zm1.728-.409c.585-.015 1.224.116 1.927.431l.818-1.825c-.928-.416-1.864-.63-2.798-.605zm1.929.432c.669.298 1.396.815 2.177 1.596l1.414-1.415c-.899-.898-1.823-1.583-2.777-2.008zm2.177 1.596.639.639 1.414-1.415-.639-.639zm.639-.776-7.359 7.359 1.414 1.414 7.359-7.358zm-5.945 7.359-1.349-1.35-1.415 1.414 1.35 1.35zm-1.349.064 5.592-5.593-1.414-1.414-5.593 5.593zm5.592-7.007c-.572-.572-1.225-.991-1.96-1.218l-.591 1.91c.381.118.761.346 1.137.722zm-1.956-1.217a4.092 4.092 0 0 0 -2.223-.078l.472 1.943c.382-.092.759-.08 1.151.043zm-2.218-.08c-.764.182-1.436.587-2.013 1.164l1.414 1.415c.355-.355.708-.549 1.061-.632l-.462-1.946zm-2.013 1.164c-.628.628-1.052 1.365-1.225 2.206l1.959.402c.085-.413.295-.809.68-1.193zm-1.224 2.204a4.547 4.547 0 0 0 .123 2.34l1.905-.61a2.545 2.545 0 0 1 -.07-1.324zm.124 2.344a4.942 4.942 0 0 0 1.226 1.983l1.415-1.414a2.936 2.936 0 0 1 -.739-1.186zm1.226 1.983 1.055 1.055 1.414-1.414-1.054-1.055zm1.055 1.055c.699.699 1.462 1.217 2.295 1.495l.633-1.898c-.469-.156-.975-.473-1.514-1.011zm2.302 1.497a4.33 4.33 0 0 0 2.482.088l-.512-1.933a2.328 2.328 0 0 1 -1.351-.057zm2.489.086c.812-.221 1.532-.67 2.162-1.3l-1.415-1.414c-.423.423-.848.669-1.273.785l.526 1.93zm2.162-1.3c.408-.408.74-.856.98-1.346l-1.796-.88c-.13.266-.324.537-.599.812zm.986-1.358a3.854 3.854 0 0 0 .379-1.583l-2-.04a1.844 1.844 0 0 1 -.187.767zm.379-1.583a3.731 3.731 0 0 0 -.349-1.633l-1.82.828c.124.273.174.525.169.765zm-.688-.398 2.012-1.398-1.141-1.643-2.012 1.399zm.574-1.723c.285.498.434 1.024.453 1.592l1.999-.066a5.375 5.375 0 0 0 -.716-2.52zm.453 1.592c.019.559-.094 1.143-.363 1.762l1.834.797c.373-.86.558-1.738.528-2.626zm-.362 1.758c-.263.598-.682 1.2-1.286 1.804l1.414 1.415c.746-.746 1.323-1.55 1.703-2.414z" fill="#fff" fill-opacity=".04"/></svg>